<?xml version="1.0" encoding="UTF-8" standalone="no"?>
<!-- Created with Inkscape (http://www.inkscape.org/) -->
<svg xmlns:rdf="http://www.w3.org/1999/02/22-rdf-syntax-ns#" xmlns="http://www.w3.org/2000/svg" height="16" shape-rendering="crispEdges" width="100" version="1.1" xmlns:cc="http://creativecommons.org/ns#" xmlns:dc="http://purl.org/dc/elements/1.1/" viewBox="0 0 100 16">
<metadata>
<rdf:RDF>
<cc:Work rdf:about="">
<dc:format>image/svg+xml</dc:format>
<dc:type rdf:resource="http://purl.org/dc/dcmitype/StillImage"/>
<dc:title/>
</cc:Work>
</rdf:RDF>
</metadata>
<g transform="translate(-1.4614 -954.44)">
<g transform="matrix(.10965 0 0 .10811 80.32 886.51)">
<path d="m-719.19 702.33v-74h456 456v74 74h-456-456v-74zm903 0.5v-64.5h-312-312v64.5 64.5h312 312v-64.5zm-557 7.5v-34h-16.5-16.5v-8.5-8.5h43.5 43.5v8.5 8.5h-16.5-16.5v34 34h-10.5-10.5v-34zm62-5.0657c0-24.881 0.37385-39.764 1.0296-40.99 2.5176-4.7042 4.5828-4.9446 42.47-4.9446 37.888 0 39.953 0.24044 42.47 4.9446 0.65579 1.2254 1.0296 16.108 1.0296 40.99v39.066h-10-10v-13-13h-23.5-23.5v13 13h-10-10v-39.066zm67-16.434v-12.5h-23.5-23.5v12.5 12.5h23.5 23.5v-12.5zm31.077 52.423-3.0769-3.0769v-36.023-36.023l3.4-3.4 3.4-3.4h40.6 40.6v8.5 8.5h-34-34v25.5 25.5h34 34v8.5 8.5h-40.923-40.923l-3.0769-3.0769zm91.923-39.423v-42.5h9.9784 9.9784l0.2716 19.076 0.27159 19.076 21.183-19.076 21.183-19.076h12.15c6.6827 0 12 0.37003 11.817 0.82229-0.18333 0.45226-9.6708 9.2472-21.083 19.544s-20.75 18.921-20.75 19.163c0 0.24266 9.532 10.46 21.182 22.706l21.182 22.264-11.432 0.2881-11.432 0.28811-6.9593-7.2881c-3.8276-4.0084-11.19-11.663-16.361-17.011l-9.4013-9.7225-5.8894 5.1224-5.8894 5.1224v11.85 11.85h-10-10v-42.5zm95 0v-42.5h10.5 10.5v34 34h33.5 33.5v8.5 8.5h-44-44v-42.5zm95 0v-42.5h40.066c27.539 0 40.749 0.34925 42.25 1.117 5.4923 2.8088 5.638 3.5476 5.662 28.71l0.0222 23.327-2.9231 2.9231c-1.7183 1.7183-3.9852 2.9231-5.5 2.9231-1.4173 0-2.5769 0.29608-2.5769 0.65796 0 0.55511 8.9964 15.624 13.787 23.092l1.4432 2.25h-11.969-11.969l-7.8294-13-7.8294-13h-15.816-15.816v13 13h-10.5-10.5v-42.5zm68-13v-12.5h-23.5-23.5v12.5 12.5h23.5 23.5v-12.5zm-739.12 54.392c5.3685-1.8715 6.1188-4.7399 6.1188-23.392 0-18.513-0.71357-21.31-5.9932-23.497l-3.0875-1.2789 2.0404-1.9009c1.8417-1.7158 2.0404-3.107 2.0404-14.285 0-11.864-0.10869-12.513-2.5889-15.461l-2.5889-3.0767h-38.411-38.411v42 42h38.851c25.855 0 39.914-0.37078 42.03-1.1084zm-61.197-15.541c-0.37638-0.37639-0.68433-4.4343-0.68433-9.0177v-8.3333h24.539 24.539l-0.28894 8.75-0.28893 8.75-23.566 0.26766c-12.961 0.14722-23.874-0.0403-24.25-0.41666zm0.002-33.998c-0.37732-0.37731-0.68603-4.436-0.68603-9.0194v-8.3333h22.039 22.039l-0.28894 8.75-0.28893 8.75-21.064 0.26935c-11.585 0.14814-21.373-0.0394-21.75-0.41667zm95.314 8.6473v-42h-10-10v42 42h10 10v-42zm61 8v-34h17 17v-8-8h-43.5-43.5v8 8h17 17v34 34h9.5 9.5v-34z"/>
<path d="m-719.19 702.33v-74h456 456v74 74h-456-456v-74zm903 0.5v-64.5h-312-312v64.5 64.5h312 312v-64.5zm-557 7.5v-34h-16.5-16.5v-8.5-8.5h43.5 43.5v8.5 8.5h-16.5-16.5v34 34h-10.5-10.5v-34zm62.032-5.25c0.0337-41.623-0.0828-40.584 4.9407-44.046 2.2166-1.5278 6.18-1.7041 38.3-1.7041 38.133 0 40.179 0.23692 42.698 4.9446 0.65579 1.2254 1.0296 16.108 1.0296 40.99v39.066h-10-10v-13-13h-23.5-23.5v13 13h-10-10l0.0318-39.25zm66.968-16.25v-12.5h-23.5-23.5v12.5 12.5h23.5 23.5v-12.5zm33.11 54.104c-4.9216-2.7278-5.0368-3.6682-5.0746-41.454l-0.0354-35.35 3.4114-3.4114 3.4114-3.4114 40.339 0.26142 40.339 0.26142 0.29044 8.25 0.29044 8.25h-34.04-34.04v25.487 25.487l33.75 0.2633 33.75 0.2633 0.29044 8.25 0.29044 8.25-40.29-0.0354c-31.521-0.0277-40.811-0.32376-42.68-1.3601zm89.89-41.104v-42.5h9.9784 9.9784l0.2716 19.2 0.27159 19.2 21.28-19.2 21.28-19.2h11.97c6.5834 0 11.97 0.20507 11.97 0.45571s-9.3375 8.8806-20.75 19.178-20.898 19.087-21.079 19.532c-0.18116 0.44573 9.1641 10.828 20.767 23.072l21.097 22.262-11.267 0.29111-11.267 0.2911-4.9745-5.2911c-2.736-2.9101-10.06-10.639-16.275-17.176l-11.301-11.885-5.7248 4.996-5.7248 4.9959-0.28078 12.139-0.28078 12.139h-9.9692-9.9692v-42.5zm95.239 0.25 0.26085-42.25h10 10l0.2633 33.75 0.2633 33.75h33.487 33.487v8.5 8.5h-44.011-44.011l0.26086-42.25zm95 0 0.26085-42.25 40.339-0.26142 40.339-0.26142 3.4114 3.4114 3.4114 3.4114v23.177 23.177l-2.9231 2.9231c-1.7183 1.7183-3.9852 2.9231-5.5 2.9231-1.4173 0-2.5769 0.27393-2.5769 0.60873 0 0.33481 3.3605 6.1848 7.4678 13l7.4678 12.391h-11.736-11.736l-7.8865-13-7.8865-13h-15.845-15.845v13 13h-10.511-10.511l0.26086-42.25zm67.761-13.25v-12.5h-23.5-23.5v12.5 12.5h23.5 23.5v-12.5zm-737.98 53.99c1.6064-0.83069 3.384-2.3761 3.9503-3.4343 0.59584-1.1133 1.0296-9.4415 1.0296-19.767 0-19.533-0.35868-20.952-5.8744-23.236-2.9099-1.2053-2.9254-1.2522-1.0398-3.1378 1.6812-1.6812 1.9142-3.434 1.9142-14.398 0-12.379-0.0245-12.512-2.9171-15.75l-2.9171-3.2658-38.083-0.28439-38.083-0.28439v42.534 42.534h39.55c33.32 0 40.01-0.23791 42.47-1.5104zm-62.02-23.99v-8.5h23.5 23.5v8.5 8.5h-23.5-23.5v-8.5zm0-34v-8.5h21.5 21.5v8.5 8.5h-21.5-21.5v-8.5zm95 17v-42.5h-10-10v42.5 42.5h10 10v-42.5zm61 8.5v-34h17 17v-8.5-8.5h-43.5-43.5v8.5 8.5h16.5 16.5v34 34h10 10v-34z"/>
<path d="m-719.19 702.33v-74h456 456v74 74h-456-456v-74zm903 0.5v-64.5h-312-312v64.5 64.5h312 312v-64.5zm-557 7.5v-34h-16.5-16.5v-8.5-8.5h43.5 43.5v8.5 8.5h-16.5-16.5v34 34h-10.5-10.5v-34zm62-4.453c0-25.518 0.36504-39.254 1.0852-40.835 2.5372-5.5684 3.6049-5.7123 42.385-5.7123 37.086 0 38.325 0.12963 41.758 4.367 1.5706 1.9389 1.7298 5.7044 1.75 41.383l0.0222 39.25h-10-10v-13-13h-23.5-23.5v13 13h-10-10v-38.453zm67-17.047v-12.5h-23.5-23.5v12.5 12.5h23.5 23.5v-12.5zm33.42 54.355c-1.1439-0.55505-2.8314-2.2815-3.75-3.8366-1.4748-2.4966-1.6702-6.9316-1.6702-37.907v-35.08l2.9174-3.2658 2.9174-3.2658h40.833 40.833l0.29044 8.25 0.29044 8.25h-34.04-34.04v25.487 25.487l33.75 0.2633 33.75 0.2633 0.29044 8.25 0.29044 8.25-40.29-0.0677c-24.92-0.0419-41.084-0.45268-42.37-1.0769zm89.58-41.355v-42.5h9.9784 9.9784l0.2716 19.179 0.27159 19.179 21.329-19.179 21.329-19.179h11.921c6.5568 0 11.921 0.21432 11.921 0.47626s-9.3375 8.8747-20.75 19.139c-11.412 10.265-20.906 19.067-21.096 19.561-0.19022 0.49397 7.4338 9.0937 16.942 19.111 9.5084 10.017 19.095 20.125 21.304 22.462l4.016 4.25h-11.522-11.522l-15.936-16.992c-8.765-9.3454-16.184-16.995-16.487-17-0.30271-0.005-3.1152 2.2777-6.25 5.0717l-5.6996 5.08v11.92 11.92h-10-10v-42.5zm95.239 0.25 0.26085-42.25h10 10l0.2633 33.75 0.2633 33.75h33.487 33.487v8.5 8.5h-44.011-44.011l0.26086-42.25zm95 0 0.26085-42.25h40.833 40.833l2.9174 3.2658 2.9174 3.2658v23.061 23.061l-2.9231 2.9231c-1.7183 1.7183-3.9852 2.9231-5.5 2.9231-1.4173 0-2.5769 0.35143-2.5769 0.78096s3.369 6.2795 7.4868 13l7.4867 12.219-11.737-0.003-11.737-0.003-7.8926-12.997-7.8926-12.997h-15.857-15.857v13 13h-10.511-10.511l0.26086-42.25zm67.761-13.25v-12.5h-23.5-23.5v12.5 12.5h23.5 23.5v-12.5zm-737.98 53.99c1.6064-0.83069 3.384-2.3761 3.9503-3.4343 0.59766-1.1167 1.0296-9.5356 1.0296-20.067v-18.143l-2.9231-2.9231c-1.6077-1.6077-3.6327-2.9231-4.5-2.9231-1.2949 0-1.2192-0.35772 0.42308-2 1.7918-1.7918 2-3.3333 2-14.811 0-11.625-0.19413-13.02-2.096-15.061-1.1528-1.2374-3.2071-2.6722-4.5651-3.1886-1.3746-0.52263-18.619-0.93874-38.904-0.93874h-36.435v42.5 42.5h39.55c33.32 0 40.01-0.23791 42.47-1.5104zm-62.02-23.99v-8.5h23.5 23.5v8.5 8.5h-23.5-23.5v-8.5zm0-34v-8.5h21.5 21.5v8.5 8.5h-21.5-21.5v-8.5zm95 17v-42.5h-10-10v42.5 42.5h10 10v-42.5zm61 8.5v-34h17 17v-8.5-8.5h-43.5-43.5v8.5 8.5h16.5 16.5v34 34h10 10v-34z"/>
<path d="m-719.19 702.33v-74h456 456v74 74h-456-456v-74zm903 0.5v-64.5h-312-312v64.5 64.5h312 312v-64.5zm-556 7.5v-34h-17-17v-8.5-8.5h43.5 43.5v8.5 8.5h-17-17v34 34h-9.5-9.5v-34zm61-4.9842v-38.984l2.9169-3.2658 2.9169-3.2658 34.833-0.30108c19.158-0.16559 36.245-0.0422 37.971 0.27429 1.7259 0.31645 4.3134 1.7508 5.75 3.1874l2.6121 2.6121v39.364 39.364h-10-10v-13-13h-23.5-23.5v13 13h-10-10v-38.984zm67-16.016v-13h-23.5-23.5v13 13h23.5 23.5v-13zm31.364 51.564-3.4362-3.4362 0.28623-36.042 0.28623-36.042 2.7718-2.7716 2.7718-2.7716 40.478-0.28253 40.478-0.28253v8.5325 8.5325h-33.5-33.5v25.5 25.5h33.5 33.5v8.5 8.5h-40.1-40.1l-3.4362-3.4362zm91.636-39.064v-42.5h10 10v19c0 10.45 0.24284 19 0.53965 19s10.013-8.55 21.59-19l21.051-19h12.065c11.716 0 12.016 0.054 10.375 1.8674-0.9295 1.0271-10.641 9.8913-21.582 19.698l-19.892 17.831 16.177 16.925c8.8974 9.3088 18.577 19.57 21.511 22.802l5.3339 5.8766h-11.361-11.361l-15.973-16.989c-8.7852-9.344-16.221-16.994-16.523-17-0.30271-0.006-3.1152 2.2752-6.25 5.0692l-5.6996 5.08v11.92 11.92h-10-10v-42.5zm96 0v-42.5h9.5 9.5v34 34h34 34v8.5 8.5h-43.5-43.5v-42.5zm95-0.0325v-42.533l40.583 0.28253 40.583 0.28253 2.9172 3.2658 2.9172 3.2658v22.034c0 17.039-0.32068 22.654-1.4147 24.77-1.4765 2.8552-4.5753 4.877-8.2357 5.3734-1.9688 0.26697-1.5271 1.3052 5.2289 12.292 4.0586 6.6 7.3888 12.338 7.4004 12.75 0.0116 0.4125-5.0414 0.73504-11.229 0.71675l-11.25-0.0332-7.8417-12.991-7.8417-12.991-16.158 0.27434-16.158 0.27429-0.27988 12.75-0.27987 12.75h-9.4701-9.4701v-42.533zm67-12.467v-13h-24-24v12.333c0 6.7833 0.3 12.633 0.66667 13 0.36666 0.36667 11.167 0.66667 24 0.66667h23.333v-13zm-737.98 53.49c1.6064-0.83069 3.384-2.3761 3.9503-3.4343 0.59766-1.1167 1.0296-9.5356 1.0296-20.067v-18.143l-2.9231-2.9231c-1.6077-1.6077-3.6327-2.9231-4.5-2.9231-1.2949 0-1.2192-0.35772 0.42308-2 1.7873-1.7873 2-3.3333 2-14.535 0-14.001-0.85124-16.52-6.2152-18.39-1.9798-0.69017-16.092-1.0748-39.434-1.0748h-36.351v42.5 42.5h39.55c33.32 0 40.01-0.23791 42.47-1.5104zm-62.02-23.99v-8.5h23.5 23.5v8.5 8.5h-23.5-23.5v-8.5zm0-34v-8.5h21.5 21.5v8.5 8.5h-21.5-21.5v-8.5zm95 17v-42.5h-10-10v42.5 42.5h10 10v-42.5zm61 8.5v-34h17 17v-8.5-8.5h-43.5-43.5v8.5 8.5h16.5 16.5v34 34h10 10v-34z"/>
<path d="m-719.19 702.33v-74h456 456v74 74h-456-456v-74zm903 0.5v-64.5h-312-312v64.5 64.5h312 312v-64.5zm-556 7.5v-34h-17-17v-8.5-8.5h43.5 43.5v8.5 8.5h-17-17v34 34h-9.5-9.5v-34zm61-4.9842v-38.984l2.918-3.2658 2.918-3.2658h37.664 37.664l2.918 3.2658 2.918 3.2658v38.984 38.984h-10-10v-13-13h-23.5-23.5v13 13h-10-10v-38.984zm67-16.016v-13h-23.5-23.5v13 13h23.5 23.5v-13zm31.766 52.083-3.2658-2.917-0.25507-35.333c-0.28109-38.938-0.26499-39.055 5.769-42.081 3.1392-1.5744 7.3423-1.7486 42.236-1.75l38.75-0.002v8.5 8.5h-33.5-33.5v25.5 25.5h33.5 33.5v8.5 8.5h-39.984-39.984l-3.2658-2.917zm91.234-39.583v-42.5h10 10v19.528 19.528l21.736-19.528 21.736-19.528h11.764c6.4701 0 11.764 0.16843 11.764 0.3743 0 0.20586-9.6561 9.0413-21.458 19.634l-21.458 19.26 8.208 8.759c4.5144 4.8175 14.222 15.107 21.572 22.866l13.364 14.107-11.364-0.0381-11.364-0.0381-15.936-16.962c-8.7645-9.329-16.329-16.962-16.81-16.962-0.48088 0-3.3224 2.3153-6.3145 5.1451l-5.4401 5.145v11.855 11.855h-10-10v-42.5zm96 0v-42.5h9.5 9.5v34 34h34 34v8.5 8.5h-43.5-43.5v-42.5zm95 0v-42.5h39.05c41.946 0 42.803 0.0964 46.39 5.2168 2.2195 3.1687 2.3109 44.432 0.10786 48.692-1.3394 2.5901-4.5434 4.527-8.7426 5.2851-1.3593 0.2454-0.22295 2.6855 5.731 12.306 4.0845 6.6 7.435 12.338 7.4455 12.75 0.0105 0.4125-5.0435 0.73225-11.231 0.71055l-11.25-0.0394-7.8063-12.961-7.8063-12.961h-16.444-16.444v13 13h-9.5-9.5v-42.5zm67-12.5v-13h-24-24v12.333c0 6.7833 0.3 12.633 0.66667 13 0.36666 0.36667 11.167 0.66667 24 0.66667h23.333v-13zm-735.92 52.077 2.9231-2.9231v-18.654-18.654l-2.9231-2.9231c-1.6077-1.6077-3.7328-2.9231-4.7225-2.9231-1.5514 0-1.4931-0.21458 0.42307-1.5567 2.103-1.473 2.2225-2.2562 2.2225-14.566 0-7.155-0.46334-13.875-1.0296-14.933-2.5293-4.726-4.4714-4.9446-43.921-4.9446h-37.05v42.5 42.5h40.577 40.577l2.9231-2.9231zm-64.077-22.577v-8.5h23.5 23.5v8.5 8.5h-23.5-23.5v-8.5zm0-34v-8.5h21 21v8.5 8.5h-21-21v-8.5zm95 17v-42.5h-10-10v42.5 42.5h10 10v-42.5zm61 8.5v-34h17 17v-8.5105-8.5105l-43.75 0.26051-43.75 0.26051-0.29044 8.25-0.29044 8.25h17.04 17.04v34 34h10 10v-34z"/>
<path d="m-719.19 702.33v-74h456 456v74 74h-456-456v-74zm903 0.5v-64.5h-312-312v64.5 64.5h312 312v-64.5zm-556 7.5v-34h-17-17v-8.5-8.5h43.5 43.5v8.5 8.5h-17-17v34 34h-9.5-9.5v-34zm61-4.9842v-38.984l2.9177-3.2658 2.9177-3.2658h37.664 37.664l2.9183 3.2658 2.9183 3.2658v38.984 38.984h-10-10v-13-13h-23.5-23.5v13 13h-10-10v-38.984zm67-16.016v-13h-23.5-23.5v13 13h23.5 23.5v-13zm34.5 54.055c-1.1-0.45022-2.9-1.8184-4-3.0404-1.909-2.1207-2.0116-3.8214-2.2551-37.368-0.28111-38.735-0.26252-38.87 5.769-41.895 3.1392-1.5744 7.3423-1.7486 42.236-1.75l38.75-0.002v8.5 8.5h-33.5-33.5v25.5 25.5h33.5 33.5v8.5 8.5l-39.25-0.0634c-21.588-0.0349-40.15-0.43175-41.25-0.88197zm88.5-41.555v-42.5h9.9789 9.9789l0.27114 19.337 0.27114 19.337 21.476-19.337 21.476-19.337h11.774c6.4756 0 11.774 0.16843 11.774 0.3743 0 0.20586-9.6561 9.0413-21.458 19.634l-21.458 19.26 8.208 8.759c4.5144 4.8175 14.222 15.107 21.572 22.866l13.364 14.107-11.364-0.0381-11.364-0.0381-15.936-16.962c-8.7645-9.329-16.329-16.962-16.81-16.962-0.48088 0-3.3224 2.3153-6.3145 5.1451l-5.4401 5.145v11.855 11.855h-10-10v-42.5zm96 0v-42.5h9.5 9.5v34 34h34 34v8.5 8.5h-43.5-43.5v-42.5zm95 0v-42.5l38.75 0.002c34.894 0.001 39.097 0.17555 42.236 1.75 5.642 2.8297 5.9828 4.4234 5.9992 28.048 0.0115 16.692-0.29952 21.907-1.4381 24.109-1.3414 2.5939-4.5518 4.5319-8.7554 5.2851-1.3814 0.24753-0.35701 2.5061 5.3549 11.806 3.8847 6.325 7.2891 12.062 7.5652 12.75 0.38457 0.95738-2.1565 1.2411-10.855 1.2119l-11.357-0.0382-7.6131-12.712-7.6131-12.712-16.637-0.27418-16.637-0.27418v13.024 13.024h-9.5-9.5v-42.5zm67-12.5v-13h-24-24v12.333c0 6.7833 0.3 12.633 0.66667 13 0.36666 0.36667 11.167 0.66667 24 0.66667h23.333v-13zm-735.92 52.077 2.9231-2.9231v-18.442c0-17.007-0.15766-18.642-2.0261-21.018-1.1143-1.4167-2.9472-2.8681-4.073-3.2254-1.8766-0.5956-1.916-0.79435-0.47392-2.3878 1.2574-1.3894 1.573-4.2939 1.573-14.475 0-7.0054-0.46334-13.603-1.0296-14.661-2.5293-4.726-4.4714-4.9446-43.921-4.9446h-37.05v42.5 42.5h40.577 40.577l2.9231-2.9231zm-64.077-22.577v-8.5h23.5 23.5v8.5 8.5h-23.5-23.5v-8.5zm0-34v-8.5h21 21v8.5 8.5h-21-21v-8.5zm95 17v-42.5h-10-10v42.5 42.5h10 10v-42.5zm61 8.5v-34h17 17v-8.5-8.5h-44-44v8.5 8.5h17 17v34 34h10 10v-34z"/>
<path d="m-719.19 702.33v-74h456 456v74 74h-456-456v-74z"/>
<path fill="#fff" d="m183.81 702.83v-64.5h-312-312v64.5 64.5h312 312v-64.5z"/>
<path d="m-372.19 710.33v-34h-17-17v-8-8h43.5 43.5v8 8h-17-17v34 34h-9.5-9.5v-34z"/>
<path d="m-310.98 704.74 0.28325-39.587 2.8058-2.4126 2.8058-2.4126h37.855 37.855l2.5889 3.0767 2.5889 3.0767v38.923 38.923h-9.5-9.5v-13-13h-24.5-24.5v13 13h-9.5332-9.5332l0.28325-39.587z"/>
<path fill="#fff" d="m-243.41 689.08 0.27987-12.75h-24.53-24.53v12.333c0 6.7833 0.30795 12.641 0.68433 13.018 0.37638 0.37638 11.289 0.56388 24.25 0.41666l23.566-0.26766 0.27988-12.75z"/>
<path d="m-209.69 743.38c-1.1-0.45022-2.9-1.8182-4-3.0401-1.901-2.1115-2.0152-3.8623-2.308-35.368-0.16941-18.231-0.0271-34.659 0.31628-36.508 0.34336-1.849 1.699-4.4364 3.0126-5.75l2.3883-2.3883h40.545 40.545v8 8h-33.5-33.5v26 26h33.5 33.5v8 8l-39.25-0.0634c-21.588-0.0349-40.15-0.43175-41.25-0.88197z"/>
<path d="m-121.19 702.33v-42h9.9784 9.9784l0.2716 18.913 0.27159 18.913 21-18.899 21-18.899 12 0.0172 12 0.0172-3 2.631c-1.65 1.447-11.211 10.03-21.248 19.074l-18.248 16.443 4.6228 5.1444c2.5426 2.8294 12.269 13.132 21.615 22.894l16.992 17.75h-11.019-11.019l-16.725-17.486-16.725-17.486-5.809 5.2357-5.809 5.2357-0.064 12.25-0.064 12.25h-10-10v-42z"/>
<path d="m-25.193 702.33v-42h9.4867 9.4867l0.2633 33.75 0.2633 33.75 33.75 0.2633 33.75 0.2633v7.9867 7.9867h-43.5-43.5v-42z"/>
<path d="m69.807 702.33v-42h40.277c43.959 0 43.197-0.0969 45.641 5.8034 0.83528 2.0165 1.1021 9.3858 0.88782 24.519l-0.30638 21.636-2.6231 2.6209c-1.4427 1.4415-4.0394 2.9133-5.7706 3.2706l-3.1475 0.64966 7.5206 12.272c4.1363 6.7494 7.5206 12.502 7.5206 12.783 0 0.28112-5.0194 0.38388-11.154 0.22837l-11.154-0.28275-7.6533-12.5-7.6532-12.5-16.693-0.27418-16.693-0.27418v13.024 13.024h-9.5-9.5v-42z"/>
<path fill="#fff" d="m136.81 689.33v-13h-24-24v13 13h24 24v-13z"/>
<path d="m-598.96 741.41c1.2136-0.9719 3.2658-2.9157 3.2658-2.9157l0.26942-17.334c0.2961-19.051-0.088-20.785-5.3981-24.363-3.0786-2.0746-3.0869-2.1043-1.2354-4.3908 1.57-1.9389 1.8635-4.0591 1.8603-13.441-0.004-12.377-1.5513-16.759-6.5936-18.676-1.5864-0.60316-17.048-0.88521-39.75-0.72507l-37.153 0.26207-0.26085 42.25-0.26086 42.25h40.995 40.995s2.1267-2.0035 3.2658-2.9157z" fill="#fff"/>
<path d="m-663.19 718.83v-8.5h23.5 23.5v8.5 8.5h-23.5-23.5v-8.5z"/>
<path d="m-663.19 684.83v-8.5h21 21v8.5 8.5h-21-21v-8.5z"/>
<path fill="#c00" d="m-568.19 701.83v-42.5h-10-10v42.5 42.5h10 10v-42.5z"/>
<path fill="#fff" d="m-506.19 710.33v-34h16.5 16.5v-8.5-8.5h-44-44v8.5 8.5h17 17v34 34h10.5 10.5v-34z"/>
</g>
</g>
</svg>
