<?xml version="1.0" encoding="UTF-8" standalone="no"?>
<!-- Generator: Adobe Illustrator 16.0.0, SVG Export Plug-In . SVG Version: 6.00 Build 0)  -->

<svg
   xmlns:dc="http://purl.org/dc/elements/1.1/"
   xmlns:cc="http://creativecommons.org/ns#"
   xmlns:rdf="http://www.w3.org/1999/02/22-rdf-syntax-ns#"
   xmlns:svg="http://www.w3.org/2000/svg"
   xmlns="http://www.w3.org/2000/svg"
   xmlns:sodipodi="http://sodipodi.sourceforge.net/DTD/sodipodi-0.dtd"
   xmlns:inkscape="http://www.inkscape.org/namespaces/inkscape"
   version="1.1"
   id="Capa_1"
   x="0px"
   y="0px"
   width="40"
   height="40"
   viewBox="0 0 40.000001 40.000001"
   xml:space="preserve"
   inkscape:version="0.91 r13725"
   sodipodi:docname="bittacklr-gohome.svg"><metadata
     id="metadata4260"><rdf:RDF><cc:Work
         rdf:about=""><dc:format>image/svg+xml</dc:format><dc:type
           rdf:resource="http://purl.org/dc/dcmitype/StillImage" /><dc:title /></cc:Work></rdf:RDF></metadata><defs
     id="defs4258" /><sodipodi:namedview
     pagecolor="#ffffff"
     bordercolor="#666666"
     borderopacity="1"
     objecttolerance="10"
     gridtolerance="10"
     guidetolerance="10"
     inkscape:pageopacity="0"
     inkscape:pageshadow="2"
     inkscape:window-width="3775"
     inkscape:window-height="2136"
     id="namedview4256"
     showgrid="false"
     fit-margin-top="0"
     fit-margin-left="0"
     fit-margin-right="0"
     fit-margin-bottom="0"
     inkscape:zoom="6.3649652"
     inkscape:cx="19.135849"
     inkscape:cy="20.000258"
     inkscape:window-x="65"
     inkscape:window-y="24"
     inkscape:window-maximized="1"
     inkscape:current-layer="Capa_1" /><g
     id="g4219"
     transform="matrix(0.1273627,0,0,0.12736483,3.9872821e-5,-3.2e-4)"><g
       id="_x33_59._Previous"><g
         id="g4222"><path
           d="M 235.532,21.063 C 160.437,-22.289 64.413,3.431 21.062,78.53 -22.294,153.615 3.43,249.643 78.527,293.007 c 75.087,43.345 171.119,17.617 214.476,-57.47 43.36,-75.099 17.616,-171.12 -57.471,-214.474 z"
           id="path4266"
           style="fill:#cc0000;fill-opacity:1"
           inkscape:connector-curvature="0" /><path
           d="M 265.8,219.832 C 231.112,279.911 154.297,300.489 94.226,265.797 34.157,231.116 13.564,154.306 48.249,94.231 82.932,34.149 159.756,13.565 219.827,48.256 c 60.071,34.676 80.657,111.5 45.973,171.576 z"
           id="path4264"
           style="fill:#000000;fill-opacity:1"
           inkscape:connector-curvature="0" /><path
           d="m 198.551,118.113 -41.671,25.207 0.08,-17.641 c 0.038,-8.662 -5.953,-12.061 -13.363,-7.566 l -51.582005,31.209 c -7.422,4.484 -7.406,11.736 0.038,16.192 L 143.156,196.111 c 7.438,4.452 13.505,1.042 13.543,-7.638 l 0.08,-17.12 41.335,24.75 c 7.438,4.452 13.509,1.034 13.545,-7.638 l 0.269,-62.803 c 0.024,-8.653 -5.97,-12.043 -13.377,-7.549 z"
           id="path4224"
           style="fill:#ff0000;fill-opacity:1"
           inkscape:connector-curvature="0" /></g></g></g><g
     id="g4226"
     transform="matrix(0.1273627,0,0,0.12736483,3.9872821e-5,-3.2e-4)" /><g
     id="g4228"
     transform="matrix(0.1273627,0,0,0.12736483,3.9872821e-5,-3.2e-4)" /><g
     id="g4230"
     transform="matrix(0.1273627,0,0,0.12736483,3.9872821e-5,-3.2e-4)" /><g
     id="g4232"
     transform="matrix(0.1273627,0,0,0.12736483,3.9872821e-5,-3.2e-4)" /><g
     id="g4234"
     transform="matrix(0.1273627,0,0,0.12736483,3.9872821e-5,-3.2e-4)" /><g
     id="g4236"
     transform="matrix(0.1273627,0,0,0.12736483,3.9872821e-5,-3.2e-4)" /><g
     id="g4238"
     transform="matrix(0.1273627,0,0,0.12736483,3.9872821e-5,-3.2e-4)" /><g
     id="g4240"
     transform="matrix(0.1273627,0,0,0.12736483,3.9872821e-5,-3.2e-4)" /><g
     id="g4242"
     transform="matrix(0.1273627,0,0,0.12736483,3.9872821e-5,-3.2e-4)" /><g
     id="g4244"
     transform="matrix(0.1273627,0,0,0.12736483,3.9872821e-5,-3.2e-4)" /><g
     id="g4246"
     transform="matrix(0.1273627,0,0,0.12736483,3.9872821e-5,-3.2e-4)" /><g
     id="g4248"
     transform="matrix(0.1273627,0,0,0.12736483,3.9872821e-5,-3.2e-4)" /><g
     id="g4250"
     transform="matrix(0.1273627,0,0,0.12736483,3.9872821e-5,-3.2e-4)" /><g
     id="g4252"
     transform="matrix(0.1273627,0,0,0.12736483,3.9872821e-5,-3.2e-4)" /><g
     id="g4254"
     transform="matrix(0.1273627,0,0,0.12736483,3.9872821e-5,-3.2e-4)" /></svg>