<?xml version="1.0" encoding="UTF-8" standalone="no"?>
<!-- Generator: Adobe Illustrator 16.0.0, SVG Export Plug-In . SVG Version: 6.00 Build 0)  -->

<svg
   xmlns:dc="http://purl.org/dc/elements/1.1/"
   xmlns:cc="http://creativecommons.org/ns#"
   xmlns:rdf="http://www.w3.org/1999/02/22-rdf-syntax-ns#"
   xmlns:svg="http://www.w3.org/2000/svg"
   xmlns="http://www.w3.org/2000/svg"
   xmlns:sodipodi="http://sodipodi.sourceforge.net/DTD/sodipodi-0.dtd"
   xmlns:inkscape="http://www.inkscape.org/namespaces/inkscape"
   version="1.1"
   id="Capa_1"
   x="0px"
   y="0px"
   width="45"
   height="45"
   viewBox="0 0 45 44.999999"
   xml:space="preserve"
   inkscape:version="0.91 r13725"
   sodipodi:docname="in-icon-inactive.svg"><metadata
     id="metadata6693"><rdf:RDF><cc:Work
         rdf:about=""><dc:format>image/svg+xml</dc:format><dc:type
           rdf:resource="http://purl.org/dc/dcmitype/StillImage" /><dc:title></dc:title></cc:Work></rdf:RDF></metadata><defs
     id="defs6691" /><sodipodi:namedview
     pagecolor="#ffffff"
     bordercolor="#666666"
     borderopacity="1"
     objecttolerance="10"
     gridtolerance="10"
     guidetolerance="10"
     inkscape:pageopacity="0"
     inkscape:pageshadow="2"
     inkscape:window-width="3775"
     inkscape:window-height="2136"
     id="namedview6689"
     showgrid="false"
     inkscape:zoom="17.557972"
     inkscape:cx="2.6245"
     inkscape:cy="2.9633585"
     inkscape:window-x="65"
     inkscape:window-y="24"
     inkscape:window-maximized="1"
     inkscape:current-layer="Capa_1"
     fit-margin-top="0"
     fit-margin-left="0"
     fit-margin-right="0"
     fit-margin-bottom="0"
     showborder="false" /><rect
     style="opacity:1;fill:#e2e2e2;fill-opacity:1;fill-rule:nonzero;stroke:none;stroke-opacity:1"
     id="rect7381"
     width="37.874535"
     height="33.77383"
     x="3.562731"
     y="5.6130886"
     ry="2.65165" /><path
     style="fill:#000000;fill-opacity:1"
     inkscape:connector-curvature="0"
     d="M 41.67715,0 3.32494,0 C 1.48848,0 0,1.44306 0,3.22415 L 0,41.77449 C 0,43.55569 1.489,45 3.32494,45 l 38.35221,0 C 43.51319,45 45,43.55474 45,41.77449 L 45,3.22415 C 45,1.44358 43.51319,0 41.67715,0 Z m -28.03443,37.66806 -6.79918,0 0,-20.31695 6.79918,0 0,20.31695 z m -3.39891,-23.09258 -0.0457,0 c -2.28007,0 -3.75809,-1.5593 -3.75809,-3.51145 0,-1.99149 1.52144,-3.50851 3.8467,-3.50851 2.32547,0 3.75589,1.51661 3.80109,3.50851 0,1.95257 -1.47509,3.51145 -3.84398,3.51145 z m 27.90794,23.09258 -6.79698,0 0,-10.87027 c 0,-2.73138 -0.98482,-4.59513 -3.44285,-4.59513 -1.8804,0 -2.99663,1.25736 -3.48679,2.47129 -0.18163,0.43355 -0.22662,1.03995 -0.22662,1.6455 l 0,11.34819 -6.79572,0 c 0,0 0.0889,-18.41135 0,-20.31684 l 6.79677,0 0,2.88036 c 0.90227,-1.38405 2.51463,-3.35838 6.12404,-3.35838 4.47371,0 7.82815,2.90212 7.82815,9.14546 l 0,11.64982 z M 24.15562,20.29571 c 0.0116,-0.019 0.0278,-0.042 0.0439,-0.0642 l 0,0.0642 -0.0439,0 z"
     id="LinkedIn__x28_alt_x29_" /></svg>