<?xml version="1.0" encoding="UTF-8" standalone="no"?>
<!-- Generator: Adobe Illustrator 16.0.0, SVG Export Plug-In . SVG Version: 6.00 Build 0)  -->

<svg
   xmlns:dc="http://purl.org/dc/elements/1.1/"
   xmlns:cc="http://creativecommons.org/ns#"
   xmlns:rdf="http://www.w3.org/1999/02/22-rdf-syntax-ns#"
   xmlns:svg="http://www.w3.org/2000/svg"
   xmlns="http://www.w3.org/2000/svg"
   xmlns:sodipodi="http://sodipodi.sourceforge.net/DTD/sodipodi-0.dtd"
   xmlns:inkscape="http://www.inkscape.org/namespaces/inkscape"
   version="1.1"
   id="Capa_1"
   x="0px"
   y="0px"
   width="18.75"
   height="30"
   viewBox="0 0 18.75 30"
   xml:space="preserve"
   inkscape:version="0.91 r13725"
   sodipodi:docname="mapmarker.svg"><metadata
     id="metadata7809"><rdf:RDF><cc:Work
         rdf:about=""><dc:format>image/svg+xml</dc:format><dc:type
           rdf:resource="http://purl.org/dc/dcmitype/StillImage" /><dc:title></dc:title></cc:Work></rdf:RDF></metadata><defs
     id="defs7807" /><sodipodi:namedview
     pagecolor="#ffffff"
     bordercolor="#666666"
     borderopacity="1"
     objecttolerance="10"
     gridtolerance="10"
     guidetolerance="10"
     inkscape:pageopacity="0"
     inkscape:pageshadow="2"
     inkscape:window-width="3775"
     inkscape:window-height="2136"
     id="namedview7805"
     showgrid="false"
     fit-margin-top="0"
     fit-margin-left="0"
     fit-margin-right="0"
     fit-margin-bottom="0"
     showborder="false"
     inkscape:zoom="11.043019"
     inkscape:cx="34.661725"
     inkscape:cy="3.2778102"
     inkscape:window-x="65"
     inkscape:window-y="24"
     inkscape:window-maximized="1"
     inkscape:current-layer="Capa_1" /><g
     id="g7771"
     transform="matrix(0.05859375,0,0,0.05859375,-5.625,0)"><path
       d="M 256,0 C 167.641,0 96,71.625 96,160 c 0,24.75 5.625,48.219 15.672,69.125 C 112.234,230.313 256,512 256,512 L 398.594,232.625 C 409.719,210.844 416,186.156 416,160 416,71.625 344.375,0 256,0 Z m 0,256 c -53.016,0 -96,-43 -96,-96 0,-53 42.984,-96 96,-96 53,0 96,43 96,96 0,53 -43,96 -96,96 z"
       id="path7773"
       inkscape:connector-curvature="0" /></g><g
     id="g7775"
     transform="matrix(0.05859375,0,0,0.05859375,-5.625,0)" /><g
     id="g7777"
     transform="matrix(0.05859375,0,0,0.05859375,-5.625,0)" /><g
     id="g7779"
     transform="matrix(0.05859375,0,0,0.05859375,-5.625,0)" /><g
     id="g7781"
     transform="matrix(0.05859375,0,0,0.05859375,-5.625,0)" /><g
     id="g7783"
     transform="matrix(0.05859375,0,0,0.05859375,-5.625,0)" /><g
     id="g7785"
     transform="matrix(0.05859375,0,0,0.05859375,-5.625,0)" /><g
     id="g7787"
     transform="matrix(0.05859375,0,0,0.05859375,-5.625,0)" /><g
     id="g7789"
     transform="matrix(0.05859375,0,0,0.05859375,-5.625,0)" /><g
     id="g7791"
     transform="matrix(0.05859375,0,0,0.05859375,-5.625,0)" /><g
     id="g7793"
     transform="matrix(0.05859375,0,0,0.05859375,-5.625,0)" /><g
     id="g7795"
     transform="matrix(0.05859375,0,0,0.05859375,-5.625,0)" /><g
     id="g7797"
     transform="matrix(0.05859375,0,0,0.05859375,-5.625,0)" /><g
     id="g7799"
     transform="matrix(0.05859375,0,0,0.05859375,-5.625,0)" /><g
     id="g7801"
     transform="matrix(0.05859375,0,0,0.05859375,-5.625,0)" /><g
     id="g7803"
     transform="matrix(0.05859375,0,0,0.05859375,-5.625,0)" /><circle
     style="opacity:1;fill:#cc0000;fill-opacity:1;fill-rule:nonzero;stroke:#cc0000;stroke-opacity:1"
     id="path7811"
     cx="9.375"
     cy="9.4799995"
     r="5.3000002" /></svg>