<?xml version="1.0" encoding="UTF-8" standalone="no"?>
<!-- Created with Inkscape (http://www.inkscape.org/) -->

<svg
   xmlns:dc="http://purl.org/dc/elements/1.1/"
   xmlns:cc="http://creativecommons.org/ns#"
   xmlns:rdf="http://www.w3.org/1999/02/22-rdf-syntax-ns#"
   xmlns:svg="http://www.w3.org/2000/svg"
   xmlns="http://www.w3.org/2000/svg"
   xmlns:sodipodi="http://sodipodi.sourceforge.net/DTD/sodipodi-0.dtd"
   xmlns:inkscape="http://www.inkscape.org/namespaces/inkscape"
   width="45"
   height="45"
   viewBox="0 0 45 45"
   id="svg4273"
   version="1.1"
   inkscape:version="0.91 r13725"
   sodipodi:docname="skype-icon-inactive.svg">
  <defs
     id="defs4275" />
  <sodipodi:namedview
     id="base"
     pagecolor="#ffffff"
     bordercolor="#666666"
     borderopacity="1.0"
     inkscape:pageopacity="0.0"
     inkscape:pageshadow="2"
     inkscape:zoom="15.839192"
     inkscape:cx="31.118954"
     inkscape:cy="-13.924448"
     inkscape:document-units="px"
     inkscape:current-layer="layer1"
     showgrid="false"
     inkscape:window-width="3775"
     inkscape:window-height="2136"
     inkscape:window-x="65"
     inkscape:window-y="24"
     inkscape:window-maximized="1"
     units="px" />
  <metadata
     id="metadata4278">
    <rdf:RDF>
      <cc:Work
         rdf:about="">
        <dc:format>image/svg+xml</dc:format>
        <dc:type
           rdf:resource="http://purl.org/dc/dcmitype/StillImage" />
        <dc:title></dc:title>
      </cc:Work>
    </rdf:RDF>
  </metadata>
  <g
     inkscape:label="Layer 1"
     inkscape:groupmode="layer"
     id="layer1"
     transform="translate(0,-1007.3622)">
    <g
       id="g4225"
       transform="translate(0.06313454,0)">
      <rect
         ry="2.6516504"
         y="1007.4061"
         x="-0.038820855"
         height="45"
         width="45"
         id="rect4488"
         style="fill:#000000;fill-opacity:1;fill-rule:evenodd;stroke:none;stroke-width:1.11972702px;stroke-linecap:butt;stroke-linejoin:miter;stroke-opacity:1" />
    </g>
    <path
       d="m 23.587903,1045.4522 c -8.040831,0 -17.1772431,-9.5469 -16.4465751,-17.4726 0.730774,-7.5651 10.9644011,-14.5899 18.5477741,-13.5091 6.670248,0.9001 12.609829,9.1862 12.243228,15.761 -0.364068,6.9336 -7.309266,15.2207 -14.344427,15.2207 z"
       id="path4267"
       inkscape:connector-curvature="0"
       style="fill:#000000;fill-opacity:1" />
    <path
       d="m 28.793147,1049.6231 c -0.549268,-0.1794 -1.371322,-0.3588 -1.827726,-0.5403 -0.548212,-0.2691 -1.188232,-0.2691 -3.197464,-0.1794 -1.919006,0.09 -2.92415,0 -4.293889,-0.1794 -7.310111,-1.2594 -13.1580941,-6.4835 -15.2592921,-13.6882 -0.364068,-1.3507 -0.459042,-2.0709 -0.459042,-5.3134 0,-3.5129 -0.0897,-3.7826 -0.548212,-5.2241 -2.64925297,-7.1151 2.74106,-14.5899 10.4161361,-14.5899 1.552828,0 3.471834,0.4485 4.568259,0.9904 0.731301,0.3588 1.188232,0.4485 4.020046,0.4485 2.558499,0 3.563643,0.09 4.842101,0.4484 5.757177,1.4415 10.416136,5.1334 12.883143,10.267 1.552828,3.1521 2.102096,6.395 1.73539,10.0863 -0.184672,1.9824 -0.184672,2.1623 0.27437,3.3326 1.462074,4.2332 0.0897,9.0959 -3.471835,11.9784 -1.097479,0.9007 -3.289273,1.8911 -4.660067,2.252 -1.371321,0.2691 -3.563115,0.2691 -4.934964,-0.09 l -0.0897,0 z m -2.467746,-6.9344 c 3.015958,-0.63 5.66463,-2.4319 6.670301,-4.5925 1.278986,-2.6124 0.913335,-5.6747 -0.822582,-7.5661 -1.462075,-1.6208 -3.654924,-2.521 -8.863097,-3.7815 -3.472362,-0.8105 -4.294944,-1.1708 -5.025718,-1.9818 -0.64002,-0.7213 -0.731301,-1.2605 -0.184672,-2.071 0.548212,-0.9006 1.919007,-1.4415 3.745677,-1.5306 2.650307,-0.1794 3.837485,0.4485 5.390524,2.8814 1.188232,1.8018 2.37541,2.2519 3.929821,1.5306 2.009759,-0.9903 1.827198,-4.2326 -0.364068,-6.1238 -2.10104,-1.7106 -4.384642,-2.4319 -8.223287,-2.4319 -4.020047,0 -6.761899,0.8104 -8.588991,2.6113 -1.462075,1.4415 -1.73539,2.2519 -1.73539,4.5028 0,2.3411 0.27437,3.0613 1.827198,4.4131 1.644636,1.5307 3.014903,2.072 7.948284,3.2423 3.47289,0.8105 4.386753,1.2606 5.20828,2.1612 0.364067,0.4485 0.549267,0.8105 0.549267,1.6209 0,0.9007 -0.0897,1.0806 -0.822582,1.8019 -1.096424,1.0801 -2.741061,1.5301 -4.842101,1.4415 -2.466691,-0.1794 -3.563115,-0.9007 -4.842101,-3.4228 -0.913862,-1.7106 -1.644636,-2.3411 -2.832869,-2.3411 -2.650308,0 -3.563643,2.1612 -2.192849,4.9529 1.188233,2.4324 3.563643,4.0538 6.578652,4.6833 1.827198,0.3588 5.84793,0.3588 7.584217,0 l -0.0897,0 z"
       id="path4269"
       inkscape:connector-curvature="0"
       style="fill:#e2e2e2;fill-opacity:1" />
  </g>
</svg>
