<?xml version="1.0" encoding="UTF-8" standalone="no"?>
<!-- Created with Inkscape (http://www.inkscape.org/) -->

<svg
   xmlns:dc="http://purl.org/dc/elements/1.1/"
   xmlns:cc="http://creativecommons.org/ns#"
   xmlns:rdf="http://www.w3.org/1999/02/22-rdf-syntax-ns#"
   xmlns:svg="http://www.w3.org/2000/svg"
   xmlns="http://www.w3.org/2000/svg"
   xmlns:sodipodi="http://sodipodi.sourceforge.net/DTD/sodipodi-0.dtd"
   xmlns:inkscape="http://www.inkscape.org/namespaces/inkscape"
   width="45"
   height="45"
   viewBox="0 0 45 45"
   id="svg4273"
   version="1.1"
   inkscape:version="0.91 r13725"
   sodipodi:docname="twitter-icon-active.svg">
  <defs
     id="defs4275" />
  <sodipodi:namedview
     id="base"
     pagecolor="#ffffff"
     bordercolor="#666666"
     borderopacity="1.0"
     inkscape:pageopacity="0.0"
     inkscape:pageshadow="2"
     inkscape:zoom="15.839192"
     inkscape:cx="31.118954"
     inkscape:cy="-13.924448"
     inkscape:document-units="px"
     inkscape:current-layer="layer1"
     showgrid="false"
     inkscape:window-width="3775"
     inkscape:window-height="2136"
     inkscape:window-x="65"
     inkscape:window-y="24"
     inkscape:window-maximized="1"
     units="px" />
  <metadata
     id="metadata4278">
    <rdf:RDF>
      <cc:Work
         rdf:about="">
        <dc:format>image/svg+xml</dc:format>
        <dc:type
           rdf:resource="http://purl.org/dc/dcmitype/StillImage" />
        <dc:title></dc:title>
      </cc:Work>
    </rdf:RDF>
  </metadata>
  <g
     inkscape:label="Layer 1"
     inkscape:groupmode="layer"
     id="layer1"
     transform="translate(0,-1007.3622)">
    <g
       id="g4225"
       transform="translate(0.06313454,0)">
      <rect
         ry="2.6516504"
         y="1007.4061"
         x="-0.038820855"
         height="45"
         width="45"
         id="rect4488"
         style="fill:#000000;fill-opacity:1;fill-rule:evenodd;stroke:none;stroke-width:1.11972702px;stroke-linecap:butt;stroke-linejoin:miter;stroke-opacity:1" />
    </g>
    <g
       id="g5007"
       transform="matrix(0.07812485,0,0,0.09613305,2.5242349,1005.296)"
       style="fill:#cc0000;fill-opacity:1">
      <path
         d="m 512.002,97.211 c -18.84,8.354 -39.082,14.001 -60.33,16.54 21.686,-13 38.342,-33.585 46.186,-58.115 -20.299,12.039 -42.777,20.78 -66.705,25.49 -19.16,-20.415 -46.461,-33.17 -76.674,-33.17 -58.011,0 -105.042,47.029 -105.042,105.039 0,8.233 0.929,16.25 2.72,23.939 -87.3,-4.382 -164.701,-46.2 -216.509,-109.753 -9.042,15.514 -14.223,33.558 -14.223,52.809 0,36.444 18.544,68.596 46.73,87.433 -17.219,-0.546 -33.416,-5.271 -47.577,-13.139 -0.01,0.438 -0.01,0.878 -0.01,1.321 0,50.894 36.209,93.348 84.261,103 -8.813,2.399 -18.094,3.687 -27.674,3.687 -6.769,0 -13.349,-0.66 -19.764,-1.888 13.368,41.73 52.16,72.104 98.126,72.949 -35.95,28.176 -81.243,44.967 -130.458,44.967 -8.479,0 -16.84,-0.496 -25.058,-1.471 46.486,29.807 101.701,47.197 161.021,47.197 193.211,0 298.868,-160.062 298.868,-298.872 0,-4.554 -0.104,-9.084 -0.305,-13.59 20.526,-14.809 38.335,-33.309 52.417,-54.373 z"
         id="path5009"
         inkscape:connector-curvature="0"
         style="fill:#cc0000;fill-opacity:1" />
    </g>
    <g
       id="g5011"
       transform="matrix(0.07812485,0,0,0.09613305,-38.81417,1013.7993)" />
    <g
       id="g5013"
       transform="matrix(0.07812485,0,0,0.09613305,-38.81417,1013.7993)" />
    <g
       id="g5015"
       transform="matrix(0.07812485,0,0,0.09613305,-38.81417,1013.7993)" />
    <g
       id="g5017"
       transform="matrix(0.07812485,0,0,0.09613305,-38.81417,1013.7993)" />
    <g
       id="g5019"
       transform="matrix(0.07812485,0,0,0.09613305,-38.81417,1013.7993)" />
    <g
       id="g5021"
       transform="matrix(0.07812485,0,0,0.09613305,-38.81417,1013.7993)" />
    <g
       id="g5023"
       transform="matrix(0.07812485,0,0,0.09613305,-38.81417,1013.7993)" />
    <g
       id="g5025"
       transform="matrix(0.07812485,0,0,0.09613305,-38.81417,1013.7993)" />
    <g
       id="g5027"
       transform="matrix(0.07812485,0,0,0.09613305,-38.81417,1013.7993)" />
    <g
       id="g5029"
       transform="matrix(0.07812485,0,0,0.09613305,-38.81417,1013.7993)" />
    <g
       id="g5031"
       transform="matrix(0.07812485,0,0,0.09613305,-38.81417,1013.7993)" />
    <g
       id="g5033"
       transform="matrix(0.07812485,0,0,0.09613305,-38.81417,1013.7993)" />
    <g
       id="g5035"
       transform="matrix(0.07812485,0,0,0.09613305,-38.81417,1013.7993)" />
    <g
       id="g5037"
       transform="matrix(0.07812485,0,0,0.09613305,-38.81417,1013.7993)" />
    <g
       id="g5039"
       transform="matrix(0.07812485,0,0,0.09613305,-38.81417,1013.7993)" />
  </g>
</svg>
