<?xml version="1.0" encoding="UTF-8" standalone="no"?>
<!-- Generator: Adobe Illustrator 16.0.0, SVG Export Plug-In . SVG Version: 6.00 Build 0)  -->

<svg
   xmlns:dc="http://purl.org/dc/elements/1.1/"
   xmlns:cc="http://creativecommons.org/ns#"
   xmlns:rdf="http://www.w3.org/1999/02/22-rdf-syntax-ns#"
   xmlns:svg="http://www.w3.org/2000/svg"
   xmlns="http://www.w3.org/2000/svg"
   xmlns:sodipodi="http://sodipodi.sourceforge.net/DTD/sodipodi-0.dtd"
   xmlns:inkscape="http://www.inkscape.org/namespaces/inkscape"
   version="1.1"
   id="Capa_1"
   x="0px"
   y="0px"
   width="40"
   height="45.166885"
   viewBox="0 0 39.999999 45.166884"
   enable-background="new 0 0 548.291 548.291"
   xml:space="preserve"
   inkscape:version="0.91 r13725"
   sodipodi:docname="vcard.svg"><metadata
     id="metadata7994"><rdf:RDF><cc:Work
         rdf:about=""><dc:format>image/svg+xml</dc:format><dc:type
           rdf:resource="http://purl.org/dc/dcmitype/StillImage" /><dc:title></dc:title></cc:Work></rdf:RDF></metadata><defs
     id="defs7992" /><sodipodi:namedview
     pagecolor="#ffffff"
     bordercolor="#666666"
     borderopacity="1"
     objecttolerance="10"
     gridtolerance="10"
     guidetolerance="10"
     inkscape:pageopacity="0"
     inkscape:pageshadow="2"
     inkscape:window-width="3775"
     inkscape:window-height="2136"
     id="namedview7990"
     showgrid="false"
     fit-margin-top="0"
     fit-margin-left="0"
     fit-margin-right="0"
     fit-margin-bottom="0"
     showborder="false"
     inkscape:zoom="19.478964"
     inkscape:cx="-16.885702"
     inkscape:cy="36.610811"
     inkscape:window-x="65"
     inkscape:window-y="24"
     inkscape:window-maximized="1"
     inkscape:current-layer="Capa_1" /><g
     id="g7986"
     transform="matrix(0.08237758,0,0,0.08237758,-2.5833609,0)"><path
       d="m 486.201,196.116 -13.166,0 0,-63.526 c 0,-0.399 -0.063,-0.795 -0.115,-1.2 -0.021,-2.522 -0.825,-5 -2.552,-6.96 L 364.657,3.677 C 364.624,3.643 364.593,3.633 364.572,3.602 363.942,2.898 363.208,2.31 362.428,1.806 362.199,1.649 361.967,1.52 361.726,1.387 361.054,1.022 360.339,0.715 359.606,0.494 359.406,0.442 359.226,0.36 359.029,0.306 358.23,0.118 357.401,0 356.563,0 L 96.757,0 C 84.894,0 75.256,9.649 75.256,21.502 l 0,174.613 -13.164,0 c -16.971,0 -30.732,13.756 -30.732,30.729 l 0,159.811 c 0,16.966 13.761,30.735 30.732,30.735 l 13.164,0 0,109.4 c 0,11.854 9.638,21.501 21.501,21.501 l 354.776,0 c 11.853,0 21.501,-9.647 21.501,-21.501 l 0,-109.398 13.166,0 c 16.966,0 30.729,-13.764 30.729,-30.73 l 0,-159.808 c 10e-4,-16.982 -13.762,-30.738 -30.728,-30.738 z M 96.757,21.502 l 249.054,0 0,110.006 c 0,5.94 4.817,10.751 10.752,10.751 l 94.972,0 0,53.861 -354.778,0 0,-174.618 z m 217.688,332.727 c 9.959,0 20.977,-2.151 27.46,-4.76 l 4.966,25.732 c -6.048,3.027 -19.669,6.267 -37.386,6.267 -50.385,0 -76.322,-31.35 -76.322,-72.851 0,-49.723 35.452,-77.397 79.565,-77.397 17.069,0 30.048,3.456 35.874,6.478 l -6.688,26.164 c -6.708,-2.811 -16,-5.396 -27.67,-5.396 -26.158,0 -46.476,15.784 -46.476,48.199 -0.009,29.191 17.286,47.564 46.677,47.564 z M 91.749,233.604 l 36.116,0 17.717,61.606 c 4.979,17.293 9.515,33.938 12.977,52.102 l 0.646,0 c 3.677,-17.522 8.208,-34.813 13.187,-51.449 l 18.598,-62.257 35.014,0 -49.078,145.697 -38.475,0 -46.702,-145.699 z m 359.785,287.358 -354.777,0 0,-103.57 354.776,0 10e-4,103.57 0,0 z m 6.051,-260.341 -55.99,0 0,33.289 52.32,0 0,26.813 -52.32,0 0,58.577 -33.065,0 0,-145.696 89.057,0 -0.002,27.017 0,0 z"
       id="path7988"
       inkscape:connector-curvature="0"
       style="fill:#c00000;fill-opacity:1" /></g></svg>