<?xml version="1.0" encoding="UTF-8" standalone="no"?>
<svg
   xmlns:dc="http://purl.org/dc/elements/1.1/"
   xmlns:cc="http://creativecommons.org/ns#"
   xmlns:rdf="http://www.w3.org/1999/02/22-rdf-syntax-ns#"
   xmlns:svg="http://www.w3.org/2000/svg"
   xmlns="http://www.w3.org/2000/svg"
   xmlns:sodipodi="http://sodipodi.sourceforge.net/DTD/sodipodi-0.dtd"
   xmlns:inkscape="http://www.inkscape.org/namespaces/inkscape"
   height="45"
   style="clip-rule:evenodd;fill-rule:evenodd;image-rendering:optimizeQuality;shape-rendering:geometricPrecision;text-rendering:geometricPrecision"
   viewBox="0 0 45 44.999998"
   width="45"
   xml:space="preserve"
   version="1.1"
   id="svg3691"
   sodipodi:docname="youtube-icon-inactive.svg"
   inkscape:version="0.91 r13725"><metadata
     id="metadata3695"><rdf:RDF><cc:Work
         rdf:about=""><dc:format>image/svg+xml</dc:format><dc:type
           rdf:resource="http://purl.org/dc/dcmitype/StillImage" /><dc:title /></cc:Work></rdf:RDF></metadata><sodipodi:namedview
     pagecolor="#ffffff"
     bordercolor="#666666"
     borderopacity="1"
     objecttolerance="10"
     gridtolerance="10"
     guidetolerance="10"
     inkscape:pageopacity="0"
     inkscape:pageshadow="2"
     inkscape:window-width="3775"
     inkscape:window-height="2136"
     id="namedview3693"
     showgrid="false"
     fit-margin-top="0"
     fit-margin-left="0"
     fit-margin-right="0"
     fit-margin-bottom="0"
     inkscape:zoom="16"
     inkscape:cx="7.609658"
     inkscape:cy="22.839861"
     inkscape:window-x="65"
     inkscape:window-y="24"
     inkscape:window-maximized="1"
     inkscape:current-layer="svg3691"
     showborder="false" /><g
     id="g4225"
     transform="translate(0.03882086,-1007.4061)"><rect
       ry="2.6516504"
       y="1007.4061"
       x="-0.038820855"
       height="45"
       width="45"
       id="rect4488"
       style="fill:#000000;fill-opacity:1;fill-rule:evenodd;stroke:none;stroke-width:1.11972702px;stroke-linecap:butt;stroke-linejoin:miter;stroke-opacity:1" /></g><defs
     id="defs3682"></defs><g
     id="Layer_x0020_1"
     transform="matrix(0.02659571,0,0,0.02659571,-4.7337791,-4.7340279)"><path
       d="m 1688.02,565.913 c -30.3756,-27.574 -68.8453,-45.6579 -110.919,-50.3067 -91.4469,-10.2354 -183.723,-15.3874 -276.305,-17.9705 -91.9879,-2.56536 -184.37,-2.56536 -276.547,-2.51221 -92.1639,-0.0531 -184.54,-0.0531 -276.54,2.51221 -92.5926,2.58307 -184.896,7.73505 -276.395,17.9705 -42.0331,4.65118 -80.4863,22.7433 -110.834,50.3292 -30.1547,27.4087 -52.3099,64.2189 -62.002,106.533 -13.0843,56.7201 -19.7032,115.899 -23.0469,175.445 -3.3567,59.7981 -3.44055,118.839 -3.44055,176.156 0,57.241 0.001,116.205 3.27874,176.039 3.26221,59.5193 9.80079,118.696 22.8921,175.426 9.75001,42.3319 31.9158,79.1528 62.0682,106.56 30.3296,27.5705 68.7449,45.652 110.766,50.3032 91.5107,10.2343 183.814,15.3862 276.407,17.9681 91.9985,2.5654 184.375,2.5654 276.55201,2.5122 92.2182,0.053 184.593,0.053 276.579,-2.5122 92.5796,-2.5819 184.856,-7.7339 276.356,-17.9681 42.013,-4.6512 80.4201,-22.7268 110.763,-50.289 30.1677,-27.4051 52.3642,-64.2296 62.178,-106.574 13.0335,-56.7319 19.5732,-115.909 22.8473,-175.426 3.2303,-58.6926 3.2575,-118.234 3.2528,-176.039 h 0.062 v -2.902 h -0.062 c 0,-114.84997 0,-236.49197 -25.7823,-348.69797 -9.7501,-42.3331 -31.9406,-79.1505 -62.1285,-106.556 z"
       id="path3684"
       inkscape:connector-curvature="0"
       style="fill:#e2e2e2;fill-opacity:1" /><path
       d="M 1309.36,995.76 C 1223.6745,951.0115 1138.565,906.5997 1053.557,862.242 982.894,825.3691 912.295,788.5293 841.491,751.562 l -23.3752,-12.2043 v 26.3292 486.747 26.263 l 23.3126,-12.0756 c 78.202,-40.5083 156.07,-80.8666 233.935,-121.236 l 233.934,-121.313 27.2303,-14.1236 -27.1677,-14.1886 z"
       id="path3686"
       inkscape:connector-curvature="0"
       style="fill:#000000;fill-opacity:1" /></g></svg>