<?xml version="1.0" encoding="UTF-8" standalone="no"?>
<!-- Created with Inkscape (http://www.inkscape.org/) -->

<svg
   xmlns:dc="http://purl.org/dc/elements/1.1/"
   xmlns:cc="http://creativecommons.org/ns#"
   xmlns:rdf="http://www.w3.org/1999/02/22-rdf-syntax-ns#"
   xmlns:svg="http://www.w3.org/2000/svg"
   xmlns="http://www.w3.org/2000/svg"
   xmlns:xlink="http://www.w3.org/1999/xlink"
   xmlns:sodipodi="http://sodipodi.sourceforge.net/DTD/sodipodi-0.dtd"
   xmlns:inkscape="http://www.inkscape.org/namespaces/inkscape"
   width="1024"
   height="768"
   viewBox="0 0 1024 768"
   id="svg2"
   version="1.1"
   inkscape:version="0.91 r13725">
  <defs
     id="defs4">
    <inkscape:perspective
       sodipodi:type="inkscape:persp3d"
       inkscape:vp_x="205 : 523 : 1"
       inkscape:vp_y="0 : 1000 : 0"
       inkscape:vp_z="1035 : 382.5 : 1"
       inkscape:persp3d-origin="523 : 254.5 : 1"
       id="perspective4310" />
    <linearGradient
       id="BottomBack"
       inkscape:collect="always">
      <stop
         id="stop4306"
         offset="0"
         style="stop-color:#525252;stop-opacity:1;" />
      <stop
         id="stop4308"
         offset="1"
         style="stop-color:#000000;stop-opacity:1" />
    </linearGradient>
    <linearGradient
       id="TopBack-3"
       inkscape:collect="always">
      <stop
         id="stop4306"
         offset="0"
         style="stop-color:#525252;stop-opacity:1;" />
      <stop
         id="stop4308"
         offset="1"
         style="stop-color:#000000;stop-opacity:1" />
    </linearGradient>
    <linearGradient
       inkscape:collect="always"
       xlink:href="#TopBack-3"
       id="linearGradient4292"
       x1="894.5"
       y1="620.36218"
       x2="566"
       y2="329.36218"
       gradientUnits="userSpaceOnUse" />
    <linearGradient
       inkscape:collect="always"
       xlink:href="#BottomBack"
       id="linearGradient4296"
       gradientUnits="userSpaceOnUse"
       x1="547.5"
       y1="668.36218"
       x2="547.5"
       y2="368.86218"
       gradientTransform="translate(-1,383.5)" />
  </defs>
  <sodipodi:namedview
     id="base"
     pagecolor="#ffffff"
     bordercolor="#666666"
     borderopacity="1.0"
     inkscape:pageopacity="0.0"
     inkscape:pageshadow="2"
     inkscape:zoom="2"
     inkscape:cx="532.02397"
     inkscape:cy="359.56102"
     inkscape:document-units="px"
     inkscape:current-layer="layer1"
     showgrid="false"
     units="px"
     inkscape:window-width="3775"
     inkscape:window-height="2136"
     inkscape:window-x="65"
     inkscape:window-y="24"
     inkscape:window-maximized="1" />
  <metadata
     id="metadata7">
    <rdf:RDF>
      <cc:Work
         rdf:about="">
        <dc:format>image/svg+xml</dc:format>
        <dc:type
           rdf:resource="http://purl.org/dc/dcmitype/StillImage" />
        <dc:title></dc:title>
      </cc:Work>
    </rdf:RDF>
  </metadata>
  <g
     inkscape:label="Layer 1"
     inkscape:groupmode="layer"
     id="layer1"
     transform="translate(0,-284.36218)">
    <rect
       style="opacity:1;fill:url(#linearGradient4292);fill-opacity:1;fill-rule:evenodd;stroke:none;stroke-width:1px;stroke-linecap:butt;stroke-linejoin:miter;stroke-opacity:1"
       id="rect3336"
       width="1024"
       height="384"
       x="0"
       y="285" />
    <rect
       y="668"
       x="0"
       height="384"
       width="1025"
       id="rect4294"
       style="opacity:1;fill:url(#linearGradient4296);fill-opacity:1;fill-rule:evenodd;stroke:none;stroke-width:1px;stroke-linecap:butt;stroke-linejoin:miter;stroke-opacity:1" />
    <g
       id="g4554"
       transform="translate(832,-107)">
      <path
         style="fill-opacity:1"
         d="m -719.19324,702.32855 0,-74 456,0 456,0 0,74 0,74 -456,0 -456,0 0,-74 z m 903,0.5 0,-64.5 -312,0 -312,0 0,64.5 0,64.5 312,0 312,0 0,-64.5 z m -557,7.5 0,-34 -16.5,0 -16.5,0 0,-8.5 0,-8.5 43.5,0 43.5,0 0,8.5 0,8.5 -16.5,0 -16.5,0 0,34 0,34 -10.5,0 -10.5,0 0,-34 z m 62,-5.06574 c 0,-24.88131 0.37385,-39.7643 1.02964,-40.98965 2.5176,-4.70417 4.58279,-4.94461 42.47036,-4.94461 37.88757,0 39.95276,0.24044 42.47036,4.94461 0.65579,1.22535 1.02964,16.10834 1.02964,40.98965 l 0,39.06574 -10,0 -10,0 0,-13 0,-13 -23.5,0 -23.5,0 0,13 0,13 -10,0 -10,0 0,-39.06574 z m 67,-16.43426 0,-12.5 -23.5,0 -23.5,0 0,12.5 0,12.5 23.5,0 23.5,0 0,-12.5 z m 31.07692,52.42308 -3.07692,-3.07693 0,-36.02307 0,-36.02308 3.4,-3.4 3.4,-3.4 40.6,0 40.6,0 0,8.5 0,8.5 -34,0 -34,0 0,25.5 0,25.5 34,0 34,0 0,8.5 0,8.5 -40.92308,0 -40.92307,0 -3.07693,-3.07692 z m 91.92308,-39.42308 0,-42.5 9.97841,0 9.9784,0 0.2716,19.0756 0.27159,19.0756 21.18298,-19.0756 21.18298,-19.0756 12.15035,0 c 6.6827,0 12.00036,0.37003 11.81702,0.82229 -0.18333,0.45226 -9.67083,9.24719 -21.08333,19.54429 -11.4125,10.2971 -20.75,18.92055 -20.75,19.16322 0,0.24266 9.53205,10.46023 21.18234,22.7057 l 21.18234,22.2645 -11.43234,0.2881 -11.43234,0.28811 -6.95932,-7.28811 c -3.82763,-4.00845 -11.18989,-11.66322 -16.36059,-17.01059 l -9.40127,-9.72248 -5.88941,5.12245 -5.88941,5.12245 0,11.85004 0,11.85003 -10,0 -10,0 0,-42.5 z m 95,0 0,-42.5 10.5,0 10.5,0 0,34 0,34 33.5,0 33.5,0 0,8.5 0,8.5 -44,0 -44,0 0,-42.5 z m 95,0 0,-42.5 40.06574,0 c 27.53887,0 40.74867,0.34925 42.25,1.11704 5.49233,2.8088 5.63804,3.54764 5.66202,28.70988 l 0.0222,23.32693 -2.92308,2.92307 c -1.71833,1.71833 -3.98515,2.92308 -5.5,2.92308 -1.4173,0 -2.57692,0.29608 -2.57692,0.65796 0,0.55511 8.99642,15.62351 13.78684,23.09204 l 1.44318,2.25 -11.96936,0 -11.96937,0 -7.82944,-13 -7.82944,-13 -15.81621,0 -15.8162,0 0,13 0,13 -10.5,0 -10.5,0 0,-42.5 z m 68,-13 0,-12.5 -23.5,0 -23.5,0 0,12.5 0,12.5 23.5,0 23.5,0 0,-12.5 z m -739.11884,54.39158 c 5.36852,-1.87147 6.11884,-4.73986 6.11884,-23.39158 0,-18.51266 -0.71357,-21.31029 -5.99323,-23.49719 l -3.08754,-1.27891 2.04039,-1.9009 c 1.84168,-1.71579 2.04038,-3.10697 2.04038,-14.28523 0,-11.86438 -0.10869,-12.51349 -2.58889,-15.46105 l -2.5889,-3.07672 -38.4111,0 -38.41111,0 0,42 0,42 38.85078,0 c 25.85485,0 39.91438,-0.37078 42.03038,-1.10842 z m -61.19683,-15.54058 c -0.37638,-0.37639 -0.68433,-4.43433 -0.68433,-9.01767 l 0,-8.33333 24.53893,0 24.53894,0 -0.28894,8.75 -0.28893,8.75 -23.56567,0.26766 c -12.96112,0.14722 -23.87362,-0.0403 -24.25,-0.41666 z m 0.002,-33.99832 c -0.37732,-0.37731 -0.68603,-4.43601 -0.68603,-9.01935 l 0,-8.33333 22.03893,0 22.03894,0 -0.28894,8.75 -0.28893,8.75 -21.06399,0.26935 c -11.58519,0.14814 -21.37269,-0.0394 -21.75,-0.41667 z m 95.31397,8.64732 0,-42 -10,0 -10,0 0,42 0,42 10,0 10,0 0,-42 z m 61,8 0,-34 17,0 17,0 0,-8 0,-8 -43.5,0 -43.5,0 0,8 0,8 17,0 17,0 0,34 0,34 9.5,0 9.5,0 0,-34 z"
         id="path4568"
         inkscape:connector-curvature="0" />
      <path
         style="fill-opacity:1"
         d="m -719.19324,702.32855 0,-74 456,0 456,0 0,74 0,74 -456,0 -456,0 0,-74 z m 903,0.5 0,-64.5 -312,0 -312,0 0,64.5 0,64.5 312,0 312,0 0,-64.5 z m -557,7.5 0,-34 -16.5,0 -16.5,0 0,-8.5 0,-8.5 43.5,0 43.5,0 0,8.5 0,8.5 -16.5,0 -16.5,0 0,34 0,34 -10.5,0 -10.5,0 0,-34 z m 62.0318,-5.25 c 0.0337,-41.62285 -0.0828,-40.58354 4.94071,-44.04589 2.21664,-1.52776 6.18005,-1.70411 38.29966,-1.70411 38.13284,0 40.17871,0.23692 42.69819,4.94461 0.65579,1.22535 1.02964,16.10834 1.02964,40.98965 l 0,39.06574 -10,0 -10,0 0,-13 0,-13 -23.5,0 -23.5,0 0,13 0,13 -10,0 -10,0 0.0318,-39.25 z m 66.9682,-16.25 0,-12.5 -23.5,0 -23.5,0 0,12.5 0,12.5 23.5,0 23.5,0 0,-12.5 z m 33.11007,54.10449 c -4.92164,-2.72785 -5.03676,-3.66823 -5.07463,-41.45449 l -0.0354,-35.35 3.41142,-3.41142 3.41142,-3.41142 40.33858,0.26142 40.33858,0.26142 0.29044,8.25 0.29044,8.25 -34.04044,0 -34.04044,0 0,25.4867 0,25.4867 33.75,0.2633 33.75,0.2633 0.29044,8.25 0.29044,8.25 -40.29044,-0.0354 c -31.52056,-0.0277 -40.81065,-0.32376 -42.68037,-1.36007 z m 89.88993,-41.10449 0,-42.5 9.97841,0 9.9784,0 0.2716,19.19961 0.27159,19.19961 21.28018,-19.19961 21.28018,-19.19961 11.96982,0 c 6.5834,0 11.96982,0.20507 11.96982,0.45571 0,0.25064 -9.3375,8.88061 -20.75,19.17771 -11.4125,10.2971 -20.89822,19.08669 -21.07938,19.53243 -0.18116,0.44573 9.16408,10.82826 20.7672,23.07228 l 21.09657,22.26187 -11.26719,0.29111 -11.2672,0.2911 -4.97448,-5.2911 c -2.73596,-2.91011 -10.05982,-10.63915 -16.27524,-17.17565 l -11.30076,-11.88453 -5.72476,4.99595 -5.72476,4.99594 -0.28078,12.13859 -0.28078,12.13859 -9.96922,0 -9.96922,0 0,-42.5 z m 95.23915,0.25 0.26085,-42.25 10,0 10,0 0.2633,33.75 0.2633,33.75 33.4867,0 33.4867,0 0,8.5 0,8.5 -44.01085,0 -44.01086,0 0.26086,-42.25 z m 95,0 0.26085,-42.25 40.33858,-0.26142 40.33858,-0.26142 3.41142,3.41142 3.41142,3.41142 0,23.17692 0,23.17693 -2.92308,2.92307 c -1.71833,1.71833 -3.98515,2.92308 -5.5,2.92308 -1.4173,0 -2.57692,0.27393 -2.57692,0.60873 0,0.33481 3.36051,6.18481 7.46781,13 l 7.4678,12.39127 -11.73632,0 -11.73632,0 -7.88646,-13 -7.88647,-13 -15.84502,0 -15.84502,0 0,13 0,13 -10.51085,0 -10.51086,0 0.26086,-42.25 z m 67.76085,-13.25 0,-12.5 -23.5,0 -23.5,0 0,12.5 0,12.5 23.5,0 23.5,0 0,-12.5 z m -737.97998,53.98965 c 1.60638,-0.83069 3.38403,-2.37611 3.95034,-3.43426 0.59584,-1.11334 1.02964,-9.44152 1.02964,-19.76714 0,-19.53279 -0.35868,-20.95154 -5.87439,-23.23622 -2.90991,-1.20532 -2.92544,-1.2522 -1.03982,-3.13782 1.68117,-1.68117 1.91421,-3.43404 1.91421,-14.39843 0,-12.37948 -0.0245,-12.51163 -2.91708,-15.75 l -2.91707,-3.26578 -38.08293,-0.28439 -38.08292,-0.28439 0,42.53439 0,42.53439 39.54966,0 c 33.31986,0 40.00972,-0.23791 42.47036,-1.51035 z m -62.02002,-23.98965 0,-8.5 23.5,0 23.5,0 0,8.5 0,8.5 -23.5,0 -23.5,0 0,-8.5 z m 0,-34 0,-8.5 21.5,0 21.5,0 0,8.5 0,8.5 -21.5,0 -21.5,0 0,-8.5 z m 95,17 0,-42.5 -10,0 -10,0 0,42.5 0,42.5 10,0 10,0 0,-42.5 z m 61,8.5 0,-34 17,0 17,0 0,-8.5 0,-8.5 -43.5,0 -43.5,0 0,8.5 0,8.5 16.5,0 16.5,0 0,34 0,34 10,0 10,0 0,-34 z"
         id="path4566"
         inkscape:connector-curvature="0" />
      <path
         style="fill-opacity:1"
         d="m -719.19324,702.32855 0,-74 456,0 456,0 0,74 0,74 -456,0 -456,0 0,-74 z m 903,0.5 0,-64.5 -312,0 -312,0 0,64.5 0,64.5 312,0 312,0 0,-64.5 z m -557,7.5 0,-34 -16.5,0 -16.5,0 0,-8.5 0,-8.5 43.5,0 43.5,0 0,8.5 0,8.5 -16.5,0 -16.5,0 0,34 0,34 -10.5,0 -10.5,0 0,-34 z m 62,-4.45295 c 0,-25.51837 0.36504,-39.25411 1.08521,-40.83473 2.53715,-5.56842 3.60487,-5.71232 42.38482,-5.71232 37.08577,0 38.3253,0.12963 41.75773,4.36704 1.57056,1.93888 1.72979,5.70435 1.75,41.38296 l 0.0222,39.25 -10,0 -10,0 0,-13 0,-13 -23.5,0 -23.5,0 0,13 0,13 -10,0 -10,0 0,-38.45295 z m 67,-17.04705 0,-12.5 -23.5,0 -23.5,0 0,12.5 0,12.5 23.5,0 23.5,0 0,-12.5 z m 33.4202,54.35545 c -1.14389,-0.55505 -2.83139,-2.28153 -3.75,-3.83661 -1.47479,-2.49663 -1.6702,-6.93165 -1.6702,-37.90736 l 0,-35.07993 2.91742,-3.26577 2.91741,-3.26578 40.83259,0 40.83258,0 0.29044,8.25 0.29044,8.25 -34.04044,0 -34.04044,0 0,25.4867 0,25.4867 33.75,0.2633 33.75,0.2633 0.29044,8.25 0.29044,8.25 -40.29044,-0.0677 c -24.91987,-0.0419 -41.08387,-0.45268 -42.37024,-1.07687 z m 89.5798,-41.35545 0,-42.5 9.97841,0 9.9784,0 0.2716,19.17886 0.27159,19.17885 21.3286,-19.17885 21.3286,-19.17886 11.9214,0 c 6.55677,0 11.9214,0.21432 11.9214,0.47626 0,0.26194 -9.3375,8.87469 -20.75,19.13944 -11.4125,10.26475 -20.90564,19.06734 -21.09586,19.56132 -0.19022,0.49397 7.43378,9.09372 16.94223,19.11055 9.50845,10.01684 19.09528,20.12493 21.30407,22.46243 l 4.01598,4.25 -11.52189,0 -11.52188,0 -15.93633,-16.99169 c -8.76497,-9.34543 -16.18399,-16.99543 -16.4867,-17 -0.30271,-0.005 -3.11521,2.27768 -6.25,5.07168 l -5.69962,5.07998 0,11.92002 0,11.92001 -10,0 -10,0 0,-42.5 z m 95.23915,0.25 0.26085,-42.25 10,0 10,0 0.2633,33.75 0.2633,33.75 33.4867,0 33.4867,0 0,8.5 0,8.5 -44.01085,0 -44.01086,0 0.26086,-42.25 z m 95,0 0.26085,-42.25 40.83258,0 40.83259,0 2.91741,3.26578 2.91742,3.26577 0,23.06115 0,23.06115 -2.92308,2.92307 c -1.71833,1.71833 -3.98515,2.92308 -5.5,2.92308 -1.4173,0 -2.57692,0.35143 -2.57692,0.78096 0,0.42953 3.36904,6.27953 7.48675,13 l 7.48674,12.21904 -11.73674,-0.003 -11.73675,-0.003 -7.89264,-12.99738 -7.89264,-12.99739 -15.85736,0 -15.85736,0 0,13 0,13 -10.51085,0 -10.51086,0 0.26086,-42.25 z m 67.76085,-13.25 0,-12.5 -23.5,0 -23.5,0 0,12.5 0,12.5 23.5,0 23.5,0 0,-12.5 z m -737.97998,53.98965 c 1.60638,-0.83069 3.38403,-2.37611 3.95034,-3.43426 0.59766,-1.11674 1.02964,-9.53558 1.02964,-20.06657 l 0,-18.14267 -2.92308,-2.92307 c -1.60769,-1.6077 -3.63269,-2.92308 -4.5,-2.92308 -1.29487,0 -1.2192,-0.35772 0.42308,-2 1.79185,-1.79185 2,-3.33333 2,-14.81144 0,-11.62484 -0.19413,-13.01982 -2.09603,-15.06126 -1.15281,-1.2374 -3.20711,-2.67225 -4.5651,-3.18856 -1.37462,-0.52263 -18.61929,-0.93874 -38.90397,-0.93874 l -36.4349,0 0,42.5 0,42.5 39.54966,0 c 33.31986,0 40.00972,-0.23791 42.47036,-1.51035 z m -62.02002,-23.98965 0,-8.5 23.5,0 23.5,0 0,8.5 0,8.5 -23.5,0 -23.5,0 0,-8.5 z m 0,-34 0,-8.5 21.5,0 21.5,0 0,8.5 0,8.5 -21.5,0 -21.5,0 0,-8.5 z m 95,17 0,-42.5 -10,0 -10,0 0,42.5 0,42.5 10,0 10,0 0,-42.5 z m 61,8.5 0,-34 17,0 17,0 0,-8.5 0,-8.5 -43.5,0 -43.5,0 0,8.5 0,8.5 16.5,0 16.5,0 0,34 0,34 10,0 10,0 0,-34 z"
         id="path4564"
         inkscape:connector-curvature="0" />
      <path
         style="fill-opacity:1"
         d="m -719.19324,702.32855 0,-74 456,0 456,0 0,74 0,74 -456,0 -456,0 0,-74 z m 903,0.5 0,-64.5 -312,0 -312,0 0,64.5 0,64.5 312,0 312,0 0,-64.5 z m -556,7.5 0,-34 -17,0 -17,0 0,-8.5 0,-8.5 43.5,0 43.5,0 0,8.5 0,8.5 -17,0 -17,0 0,34 0,34 -9.5,0 -9.5,0 0,-34 z m 61,-4.98422 0,-38.98423 2.91694,-3.26577 2.91694,-3.26578 34.83306,-0.30108 c 19.15818,-0.16559 36.24513,-0.0422 37.97098,0.27429 1.72586,0.31645 4.31336,1.7508 5.75,3.18744 l 2.61208,2.61208 0,39.36363 0,39.36364 -10,0 -10,0 0,-13 0,-13 -23.5,0 -23.5,0 0,13 0,13 -10,0 -10,0 0,-38.98422 z m 67,-16.01578 0,-13 -23.5,0 -23.5,0 0,13 0,13 23.5,0 23.5,0 0,-13 z m 31.36377,51.56377 -3.43623,-3.43623 0.28623,-36.04212 0.28623,-36.04213 2.77183,-2.77164 2.77182,-2.77165 40.47818,-0.28253 40.47817,-0.28253 0,8.53253 0,8.53253 -33.5,0 -33.5,0 0,25.5 0,25.5 33.5,0 33.5,0 0,8.5 0,8.5 -40.1,0 -40.1,0 -3.43623,-3.43623 z m 91.63623,-39.06377 0,-42.5 10,0 10,0 0,19 c 0,10.45 0.24284,19 0.53965,19 0.29681,0 10.01252,-8.55 21.59047,-19 l 21.05081,-19 12.06452,0 c 11.71569,0 12.01566,0.054 10.37453,1.86743 -0.9295,1.02708 -10.6414,9.89133 -21.582,19.69834 l -19.892,17.83091 16.17701,16.92503 c 8.89735,9.30877 18.57727,19.56951 21.51091,22.80166 l 5.33391,5.87663 -11.36088,0 -11.36087,0 -15.97303,-16.98918 c -8.78517,-9.34405 -16.2207,-16.99405 -16.52341,-17 -0.30271,-0.006 -3.11521,2.27517 -6.25,5.06917 l -5.69962,5.07998 0,11.92002 0,11.92001 -10,0 -10,0 0,-42.5 z m 96,0 0,-42.5 9.5,0 9.5,0 0,34 0,34 34,0 34,0 0,8.5 0,8.5 -43.5,0 -43.5,0 0,-42.5 z m 95,-0.0325 0,-42.53253 40.58284,0.28253 40.58284,0.28253 2.91716,3.26578 2.91716,3.26577 0,22.03388 c 0,17.03926 -0.32068,22.65402 -1.41469,24.76959 -1.47647,2.85519 -4.57532,4.87702 -8.23573,5.37338 -1.96878,0.26697 -1.52712,1.30518 5.2289,12.2916 4.05863,6.6 7.38882,12.3375 7.40042,12.75 0.0116,0.4125 -5.0414,0.73504 -11.2289,0.71675 l -11.25,-0.0332 -7.84167,-12.99109 -7.84167,-12.99109 -16.15833,0.27434 -16.15833,0.27429 -0.27988,12.75 -0.27987,12.75 -9.47013,0 -9.47012,0 0,-42.53253 z m 67,-12.46747 0,-13 -24,0 -24,0 0,12.33333 c 0,6.78334 0.3,12.63334 0.66667,13 0.36666,0.36667 11.16666,0.66667 24,0.66667 l 23.33333,0 0,-13 z m -737.97998,53.48965 c 1.60638,-0.83069 3.38403,-2.37611 3.95034,-3.43426 0.59766,-1.11674 1.02964,-9.53558 1.02964,-20.06657 l 0,-18.14267 -2.92308,-2.92307 c -1.60769,-1.6077 -3.63269,-2.92308 -4.5,-2.92308 -1.29487,0 -1.2192,-0.35772 0.42308,-2 1.78727,-1.78727 2,-3.33333 2,-14.53518 0,-14.00139 -0.85124,-16.52011 -6.21521,-18.39 -1.97983,-0.69017 -16.09221,-1.07482 -39.43401,-1.07482 l -36.35078,0 0,42.5 0,42.5 39.54966,0 c 33.31986,0 40.00972,-0.23791 42.47036,-1.51035 z m -62.02002,-23.98965 0,-8.5 23.5,0 23.5,0 0,8.5 0,8.5 -23.5,0 -23.5,0 0,-8.5 z m 0,-34 0,-8.5 21.5,0 21.5,0 0,8.5 0,8.5 -21.5,0 -21.5,0 0,-8.5 z m 95,17 0,-42.5 -10,0 -10,0 0,42.5 0,42.5 10,0 10,0 0,-42.5 z m 61,8.5 0,-34 17,0 17,0 0,-8.5 0,-8.5 -43.5,0 -43.5,0 0,8.5 0,8.5 16.5,0 16.5,0 0,34 0,34 10,0 10,0 0,-34 z"
         id="path4562"
         inkscape:connector-curvature="0" />
      <path
         style="fill-opacity:1"
         d="m -719.19324,702.32855 0,-74 456,0 456,0 0,74 0,74 -456,0 -456,0 0,-74 z m 903,0.5 0,-64.5 -312,0 -312,0 0,64.5 0,64.5 312,0 312,0 0,-64.5 z m -556,7.5 0,-34 -17,0 -17,0 0,-8.5 0,-8.5 43.5,0 43.5,0 0,8.5 0,8.5 -17,0 -17,0 0,34 0,34 -9.5,0 -9.5,0 0,-34 z m 61,-4.98422 0,-38.98423 2.91797,-3.26577 2.91797,-3.26578 37.66406,0 37.66406,0 2.91797,3.26578 2.91797,3.26577 0,38.98423 0,38.98422 -10,0 -10,0 0,-13 0,-13 -23.5,0 -23.5,0 0,13 0,13 -10,0 -10,0 0,-38.98422 z m 67,-16.01578 0,-13 -23.5,0 -23.5,0 0,13 0,13 23.5,0 23.5,0 0,-13 z m 31.76578,52.08302 -3.26578,-2.91698 -0.25507,-35.33302 c -0.28109,-38.93769 -0.26499,-39.05513 5.76898,-42.08147 3.13917,-1.57445 7.34226,-1.7486 42.23609,-1.75 l 38.75,-0.002 0,8.5 0,8.5 -33.5,0 -33.5,0 0,25.5 0,25.5 33.5,0 33.5,0 0,8.5 0,8.5 -39.98422,0 -39.98423,0 -3.26577,-2.91698 z m 91.23422,-39.58302 0,-42.5 10,0 10,0 0,19.52799 0,19.528 21.73616,-19.528 21.73616,-19.52799 11.76384,0 c 6.47011,0 11.76384,0.16843 11.76384,0.3743 0,0.20586 -9.6561,9.04129 -21.458,19.63428 l -21.458,19.25999 8.208,8.75903 c 4.5144,4.81746 14.22201,15.10703 21.57247,22.86571 l 13.36448,14.10669 -11.36448,-0.0381 -11.36447,-0.0381 -15.93553,-16.96191 c -8.76454,-9.32905 -16.32898,-16.96191 -16.80986,-16.96191 -0.48088,0 -3.32239,2.31528 -6.31447,5.14506 l -5.44014,5.14505 0,11.85495 0,11.85494 -10,0 -10,0 0,-42.5 z m 96,0 0,-42.5 9.5,0 9.5,0 0,34 0,34 34,0 34,0 0,8.5 0,8.5 -43.5,0 -43.5,0 0,-42.5 z m 95,0 0,-42.5 39.04966,0 c 41.94639,0 42.80313,0.0964 46.38964,5.21679 2.21946,3.16873 2.31086,44.43188 0.10786,48.69202 -1.3394,2.5901 -4.54345,4.52701 -8.74265,5.2851 -1.35931,0.2454 -0.22295,2.6855 5.73096,12.30609 4.08454,6.6 7.43501,12.3375 7.44549,12.75 0.0105,0.4125 -5.04346,0.73225 -11.23096,0.71055 l -11.25,-0.0394 -7.80631,-12.96055 -7.80631,-12.96055 -16.44369,0 -16.44369,0 0,13 0,13 -9.5,0 -9.5,0 0,-42.5 z m 67,-12.5 0,-13 -24,0 -24,0 0,12.33333 c 0,6.78334 0.3,12.63334 0.66667,13 0.36666,0.36667 11.16666,0.66667 24,0.66667 l 23.33333,0 0,-13 z m -735.92308,52.07692 2.92308,-2.92307 0,-18.65385 0,-18.65385 -2.92308,-2.92307 c -1.60769,-1.6077 -3.73282,-2.92308 -4.7225,-2.92308 -1.55139,0 -1.49307,-0.21458 0.42307,-1.5567 2.10301,-1.47301 2.22251,-2.25619 2.22251,-14.56575 0,-7.15497 -0.46334,-13.87479 -1.02964,-14.93294 -2.52926,-4.72596 -4.47145,-4.94461 -43.9207,-4.94461 l -37.04966,0 0,42.5 0,42.5 40.57692,0 40.57693,0 2.92307,-2.92308 z m -64.07692,-22.57692 0,-8.5 23.5,0 23.5,0 0,8.5 0,8.5 -23.5,0 -23.5,0 0,-8.5 z m 0,-34 0,-8.5 21,0 21,0 0,8.5 0,8.5 -21,0 -21,0 0,-8.5 z m 95,17 0,-42.5 -10,0 -10,0 0,42.5 0,42.5 10,0 10,0 0,-42.5 z m 61,8.5 0,-34 17,0 17,0 0,-8.51051 0,-8.51051 -43.75,0.26051 -43.75,0.26051 -0.29044,8.25 -0.29044,8.25 17.04044,0 17.04044,0 0,34 0,34 10,0 10,0 0,-34 z"
         id="path4560"
         inkscape:connector-curvature="0" />
      <path
         style="fill-opacity:1"
         d="m -719.19324,702.32855 0,-74 456,0 456,0 0,74 0,74 -456,0 -456,0 0,-74 z m 903,0.5 0,-64.5 -312,0 -312,0 0,64.5 0,64.5 312,0 312,0 0,-64.5 z m -556,7.5 0,-34 -17,0 -17,0 0,-8.5 0,-8.5 43.5,0 43.5,0 0,8.5 0,8.5 -17,0 -17,0 0,34 0,34 -9.5,0 -9.5,0 0,-34 z m 61,-4.98422 0,-38.98423 2.91767,-3.26577 2.91767,-3.26578 37.66401,0 37.664,0 2.91833,3.26578 2.91832,3.26577 0,38.98423 0,38.98422 -10,0 -10,0 0,-13 0,-13 -23.5,0 -23.5,0 0,13 0,13 -10,0 -10,0 0,-38.98422 z m 67,-16.01578 0,-13 -23.5,0 -23.5,0 0,13 0,13 23.5,0 23.5,0 0,-13 z m 34.5,54.05464 c -1.1,-0.45022 -2.9,-1.81839 -4,-3.04037 -1.90897,-2.12067 -2.01161,-3.82143 -2.25507,-37.36803 -0.28111,-38.73457 -0.26252,-38.86959 5.76898,-41.89469 3.13917,-1.57445 7.34226,-1.7486 42.23609,-1.75 l 38.75,-0.002 0,8.5 0,8.5 -33.5,0 -33.5,0 0,25.5 0,25.5 33.5,0 33.5,0 0,8.5 0,8.5 -39.25,-0.0634 c -21.5875,-0.0349 -40.15,-0.43175 -41.25,-0.88197 z m 88.5,-41.55464 0,-42.5 9.97886,0 9.97886,0 0.27114,19.33735 0.27114,19.33735 21.47612,-19.33735 21.47612,-19.33735 11.77388,0 c 6.47563,0 11.77388,0.16843 11.77388,0.3743 0,0.20586 -9.6561,9.04129 -21.458,19.63428 l -21.458,19.25999 8.208,8.75903 c 4.5144,4.81746 14.22201,15.10703 21.57247,22.86571 l 13.36448,14.10669 -11.36448,-0.0381 -11.36447,-0.0381 -15.93553,-16.96191 c -8.76454,-9.32905 -16.32898,-16.96191 -16.80986,-16.96191 -0.48088,0 -3.32239,2.31528 -6.31447,5.14506 l -5.44014,5.14505 0,11.85495 0,11.85494 -10,0 -10,0 0,-42.5 z m 96,0 0,-42.5 9.5,0 9.5,0 0,34 0,34 34,0 34,0 0,8.5 0,8.5 -43.5,0 -43.5,0 0,-42.5 z m 95,0 0,-42.5 38.75,0.002 c 34.89383,10e-4 39.09692,0.17555 42.23609,1.75 5.64195,2.82972 5.98282,4.42339 5.99917,28.04811 0.0115,16.69233 -0.29952,21.90738 -1.4381,24.10914 -1.34137,2.59392 -4.55184,4.53189 -8.75539,5.28511 -1.38144,0.24753 -0.35701,2.50612 5.35487,11.80609 3.88471,6.325 7.28906,12.0625 7.56522,12.75 0.38457,0.95738 -2.15651,1.24108 -10.85487,1.21188 l -11.35699,-0.0382 -7.61311,-12.71187 -7.61312,-12.71188 -16.63688,-0.27418 -16.63689,-0.27418 0,13.02418 0,13.02418 -9.5,0 -9.5,0 0,-42.5 z m 67,-12.5 0,-13 -24,0 -24,0 0,12.33333 c 0,6.78334 0.3,12.63334 0.66667,13 0.36666,0.36667 11.16666,0.66667 24,0.66667 l 23.33333,0 0,-13 z m -735.92308,52.07692 2.92308,-2.92307 0,-18.44207 c 0,-17.00701 -0.15766,-18.64249 -2.02609,-21.01781 -1.11434,-1.41667 -2.9472,-2.86811 -4.07302,-3.22543 -1.87657,-0.5956 -1.91601,-0.79435 -0.47392,-2.38785 1.25739,-1.3894 1.57303,-4.29392 1.57303,-14.47517 0,-7.00535 -0.46334,-13.60276 -1.02964,-14.66091 -2.52926,-4.72596 -4.47145,-4.94461 -43.9207,-4.94461 l -37.04966,0 0,42.5 0,42.5 40.57692,0 40.57693,0 2.92307,-2.92308 z m -64.07692,-22.57692 0,-8.5 23.5,0 23.5,0 0,8.5 0,8.5 -23.5,0 -23.5,0 0,-8.5 z m 0,-34 0,-8.5 21,0 21,0 0,8.5 0,8.5 -21,0 -21,0 0,-8.5 z m 95,17 0,-42.5 -10,0 -10,0 0,42.5 0,42.5 10,0 10,0 0,-42.5 z m 61,8.5 0,-34 17,0 17,0 0,-8.5 0,-8.5 -44,0 -44,0 0,8.5 0,8.5 17,0 17,0 0,34 0,34 10,0 10,0 0,-34 z"
         id="path4558"
         inkscape:connector-curvature="0" />
      <path
         style="fill-opacity:1"
         d="m -719.19324,702.32855 0,-74 456,0 456,0 0,74 0,74 -456,0 -456,0 0,-74 z"
         id="path4598"
         inkscape:connector-curvature="0" />
      <path
         style="fill:#ffffff;fill-opacity:1"
         d="m 183.80676,702.82855 0,-64.5 -312,0 -312,0 0,64.5 0,64.5 312,0 312,0 0,-64.5 z"
         id="path4596"
         inkscape:connector-curvature="0" />
      <path
         style="fill-opacity:1"
         d="m -372.19324,710.32855 0,-34 -17,0 -17,0 0,-8 0,-8 43.5,0 43.5,0 0,8 0,8 -17,0 -17,0 0,34 0,34 -9.5,0 -9.5,0 0,-34 z"
         id="path4594"
         inkscape:connector-curvature="0" />
      <path
         style="fill-opacity:1"
         d="m -310.97649,704.74115 0.28325,-39.5874 2.80576,-2.4126 2.80577,-2.4126 37.85534,0 37.85534,0 2.5889,3.07672 2.58889,3.07673 0,38.92327 0,38.92328 -9.5,0 -9.5,0 0,-13 0,-13 -24.5,0 -24.5,0 0,13 0,13 -9.53325,0 -9.53325,0 0.28325,-39.5874 z"
         id="path4592"
         inkscape:connector-curvature="0" />
      <path
         style="fill:#ffffff;fill-opacity:1"
         d="m -243.41336,689.07855 0.27987,-12.75 -24.52987,0 -24.52988,0 0,12.33333 c 0,6.78334 0.30795,12.64128 0.68433,13.01767 0.37638,0.37638 11.28888,0.56388 24.25,0.41666 l 23.56567,-0.26766 0.27988,-12.75 z"
         id="path4590"
         inkscape:connector-curvature="0" />
      <path
         style="fill-opacity:1"
         d="m -209.69324,743.38319 c -1.1,-0.45022 -2.9,-1.81825 -4,-3.04008 -1.901,-2.11152 -2.01525,-3.86231 -2.30802,-35.36803 -0.16941,-18.23059 -0.0271,-34.65931 0.31628,-36.50826 0.34336,-1.84895 1.69901,-4.43645 3.01256,-5.75 l 2.38827,-2.38827 40.54546,0 40.54545,0 0,8 0,8 -33.5,0 -33.5,0 0,26 0,26 33.5,0 33.5,0 0,8 0,8 -39.25,-0.0634 c -21.5875,-0.0349 -40.15,-0.43175 -41.25,-0.88197 z"
         id="path4588"
         inkscape:connector-curvature="0" />
      <path
         style="fill-opacity:1"
         d="m -121.19324,702.32855 0,-42 9.97841,0 9.9784,0 0.2716,18.9133 0.27159,18.9133 21,-18.89886 21,-18.89886 12,0.0172 12,0.0172 -3,2.63099 c -1.65,1.44705 -11.21149,10.03033 -21.24776,19.07396 l -18.24776,16.44296 4.62283,5.14444 c 2.54256,2.82945 12.26915,13.13194 21.61466,22.89444 l 16.99182,17.75 -11.01875,0 -11.01875,0 -16.72513,-17.48568 -16.72513,-17.48568 -5.80903,5.23568 -5.80904,5.23569 -0.064,12.25 -0.064,12.25 -10,0 -10,0 0,-42 z"
         id="path4586"
         inkscape:connector-curvature="0" />
      <path
         style="fill-opacity:1"
         d="m -25.19324,702.32855 0,-42 9.4867,0 9.4867,0 0.2633,33.75 0.2633,33.75 33.75,0.2633 33.75,0.2633 0,7.9867 0,7.9867 -43.5,0 -43.5,0 0,-42 z"
         id="path4584"
         inkscape:connector-curvature="0" />
      <path
         style="fill-opacity:1"
         d="m 69.80676,702.32855 0,-42 40.27749,0 c 43.95895,0 43.1971,-0.0969 45.64107,5.80338 0.83528,2.01654 1.10211,9.38578 0.88782,24.51923 l -0.30638,21.63619 -2.62307,2.62094 c -1.44268,1.44151 -4.03944,2.91328 -5.77057,3.2706 l -3.1475,0.64966 7.52057,12.27163 c 4.13631,6.7494 7.52057,12.50164 7.52057,12.78275 0,0.28112 -5.01941,0.38388 -11.15424,0.22837 l -11.15423,-0.28275 -7.65326,-12.5 -7.65325,-12.5 -16.69251,-0.27418 -16.69251,-0.27418 0,13.02418 0,13.02418 -9.5,0 -9.5,0 0,-42 z"
         id="path4582"
         inkscape:connector-curvature="0" />
      <path
         style="fill:#ffffff;fill-opacity:1"
         d="m 136.80676,689.32855 0,-13 -24,0 -24,0 0,13 0,13 24,0 24,0 0,-13 z"
         id="path4580"
         inkscape:connector-curvature="0" />
      <path
         style="fill:#ffffff;fill-opacity:1"
         d="m -598.95902,741.41286 c 1.21359,-0.9719 3.26578,-2.91568 3.26578,-2.91568 l 0.26942,-17.33432 c 0.2961,-19.0509 -0.088,-20.78461 -5.39807,-24.36304 -3.07856,-2.07464 -3.08691,-2.10432 -1.23543,-4.3908 1.57004,-1.93891 1.86349,-4.05914 1.86034,-13.44125 -0.004,-12.37686 -1.55131,-16.75915 -6.59358,-18.67622 -1.58643,-0.60316 -17.04847,-0.88521 -39.74954,-0.72507 l -37.15314,0.26207 -0.26085,42.25 -0.26086,42.25 40.99508,0 40.99508,0 c 0,0 2.1267,-2.00348 3.26577,-2.91569 z"
         id="path4578"
         inkscape:connector-curvature="0"
         sodipodi:nodetypes="scssscsscccccs" />
      <path
         style="fill-opacity:1"
         d="m -663.19324,718.82855 0,-8.5 23.5,0 23.5,0 0,8.5 0,8.5 -23.5,0 -23.5,0 0,-8.5 z"
         id="path4576"
         inkscape:connector-curvature="0" />
      <path
         style="fill-opacity:1"
         d="m -663.19324,684.82855 0,-8.5 21,0 21,0 0,8.5 0,8.5 -21,0 -21,0 0,-8.5 z"
         id="path4574"
         inkscape:connector-curvature="0" />
      <path
         style="fill:#cc0000;fill-opacity:1"
         d="m -568.19324,701.82855 0,-42.5 -10,0 -10,0 0,42.5 0,42.5 10,0 10,0 0,-42.5 z"
         id="path4572"
         inkscape:connector-curvature="0" />
      <path
         style="fill:#ffffff;fill-opacity:1"
         d="m -506.19324,710.32855 0,-34 16.5,0 16.5,0 0,-8.5 0,-8.5 -44,0 -44,0 0,8.5 0,8.5 17,0 17,0 0,34 0,34 10.5,0 10.5,0 0,-34 z"
         id="path4556"
         inkscape:connector-curvature="0" />
    </g>
  </g>
</svg>
