<?xml version="1.0" encoding="utf-8"?>
<!-- Generator: Adobe Illustrator 16.0.0, SVG Export Plug-In . SVG Version: 6.00 Build 0)  -->
<!DOCTYPE svg PUBLIC "-//W3C//DTD SVG 1.1//EN" "http://www.w3.org/Graphics/SVG/1.1/DTD/svg11.dtd">
<svg version="1.1" id="Capa_1" xmlns="http://www.w3.org/2000/svg" xmlns:xlink="http://www.w3.org/1999/xlink" x="0px" y="0px"
	 width="857.143px" height="1000px" viewBox="0 0 857.143 1000" enable-background="new 0 0 857.143 1000" xml:space="preserve">
<path display="none" d="M541.818,694.216v117.738c0,24.924-7.254,37.386-21.763,37.386c-8.556,0-16.926-4.092-25.109-12.275V669.105
	c8.184-8.184,16.554-12.275,25.109-12.275C534.564,656.83,541.818,669.292,541.818,694.216L541.818,694.216z M730.422,694.774
	v25.668h-50.22v-25.668c0-25.296,8.37-37.944,25.11-37.944C722.052,656.83,730.422,669.479,730.422,694.774L730.422,694.774z
	 M191.394,573.13H251.1v-52.452H77.004v52.452h58.59v317.502h55.8V573.13z M352.098,890.632h49.662V614.98h-49.662v210.924
	c-11.16,15.624-21.762,23.436-31.806,23.436c-6.696,0-10.602-3.906-11.718-11.718c-0.372-1.116-0.558-7.626-0.558-19.53V614.979
	h-49.662v218.179c0,18.228,1.488,31.806,4.464,40.733c4.464,13.765,15.252,20.646,32.364,20.646
	c17.856,0,36.828-11.347,56.916-34.038V890.632L352.098,890.632z M591.48,808.048V698.122c0-27.156-1.675-45.57-5.022-55.242
	c-6.324-20.832-19.53-31.248-39.618-31.248c-18.6,0-35.897,10.044-51.894,30.132V520.678h-49.662v369.954h49.662v-26.784
	c16.739,20.461,34.038,30.69,51.894,30.69c20.088,0,33.294-10.229,39.618-30.69C589.806,853.804,591.48,835.204,591.48,808.048
	L591.48,808.048z M780.084,802.468v-7.254h-50.778c0,18.972-0.372,30.318-1.116,34.038c-2.604,13.393-10.044,20.088-22.319,20.088
	c-17.112,0-25.668-12.834-25.668-38.502v-48.546h99.882v-57.474c0-29.389-5.022-50.965-15.066-64.729
	c-14.508-18.972-34.224-28.458-59.147-28.458c-25.296,0-45.198,9.486-59.706,28.458c-10.416,13.764-15.624,35.34-15.624,64.729
	v96.533c0,29.389,5.394,50.965,16.182,64.729c14.508,18.972,34.597,28.458,60.265,28.458c26.783,0,46.871-9.858,60.264-29.574
	c6.696-10.044,10.602-20.088,11.718-30.132C779.712,831.484,780.084,820.696,780.084,802.468L780.084,802.468z M440.82,293.014
	v-117.18c0-25.668-7.998-38.502-23.994-38.502s-23.994,12.834-23.994,38.502v117.18c0,26.04,7.998,39.06,23.994,39.06
	S440.82,319.054,440.82,293.014z M842.021,712.072c0,87.048-4.836,152.147-14.508,195.3c-5.208,21.948-15.996,40.362-32.363,55.242
	c-16.368,14.88-35.341,23.436-56.916,25.668C669.786,996.094,566.556,1000,428.544,1000c-138.012,0-241.242-3.906-309.69-11.718
	c-21.576-2.232-40.641-10.788-57.195-25.668c-16.554-14.88-27.249-33.294-32.085-55.242c-9.672-41.664-14.508-106.764-14.508-195.3
	c0-87.048,4.836-152.148,14.508-195.3c5.208-21.948,15.996-40.362,32.364-55.242s35.526-23.622,57.474-26.227
	c68.076-7.439,171.12-11.16,309.132-11.16c138.012,0,241.242,3.721,309.69,11.16c21.575,2.604,40.641,11.347,57.194,26.227
	s27.249,33.294,32.085,55.242C837.186,558.436,842.021,623.536,842.021,712.072z M285.138,0.064h56.916l-67.518,222.642v151.218
	h-55.8V222.706c-5.208-27.528-16.554-66.96-34.038-118.296c-13.764-38.316-25.854-73.098-36.27-104.346h59.148l39.618,146.754
	L285.138,0.064z M491.598,185.878v97.65c0,30.132-5.208,52.081-15.624,65.844c-13.764,18.972-33.479,28.458-59.147,28.458
	c-24.924,0-44.454-9.486-58.59-28.458c-10.416-14.136-15.624-36.084-15.624-65.844v-97.65c0-29.76,5.208-51.522,15.624-65.286
	c14.136-18.972,33.666-28.458,58.59-28.458c25.668,0,45.384,9.486,59.147,28.458C486.39,134.356,491.598,156.118,491.598,185.878z
	 M678.528,95.482v278.442H627.75v-30.689c-19.716,23.063-38.874,34.596-57.474,34.596c-17.112,0-28.086-6.882-32.923-20.646
	c-2.976-8.928-4.464-22.878-4.464-41.85V95.482h50.778v204.786c0,12.276,0.186,18.786,0.558,19.53
	c1.116,8.185,5.022,12.276,11.719,12.276c10.044,0,20.646-7.998,31.806-23.994V95.482H678.528L678.528,95.482z"/>
<path d="M54.985,777.71c0,58.649,45.466,106.031,101.419,106.031c56.177,0,101.549-47.382,101.549-106.031
	c0-58.353-45.372-106.254-101.549-106.254C100.452,671.456,54.985,719.357,54.985,777.71z"/>
<path d="M54.985,508.932c95.098,0,184.525,38.974,251.839,109.674c67.242,70.517,104.358,164.794,104.358,264.912h146.719
	c0-291.055-225.713-527.833-502.916-527.833V508.932z"/>
<path d="M54.985,237.268c339.125,0,615.195,289.922,615.195,646.176h146.495c0-440.714-341.747-799.459-761.69-799.459V237.268z"/>
</svg>
